{"glyphs":{"0":{"ha":856,"x_min":50,"x_max":796,"o":"m 50 454 q 74 619 50 536 q 145 767 99 701 q 263 873 192 832 q 428 914 333 914 q 590 872 521 914 q 706 764 660 831 q 774 615 751 697 q 796 450 796 532 q 765 265 796 350 q 681 119 733 181 q 561 24 629 58 q 419 -10 493 -10 q 278 26 346 -10 q 160 123 211 61 q 80 269 110 185 q 50 454 50 354 m 110 454 q 135 289 110 364 q 204 160 161 214 q 303 76 247 107 q 421 46 360 46 q 539 75 482 46 q 640 157 596 104 q 710 284 683 210 q 738 449 738 358 q 717 604 738 531 q 656 734 696 678 q 557 824 615 790 q 426 857 499 857 q 294 825 353 857 q 195 738 236 793 q 132 608 154 682 q 110 454 110 535 z "},"1":{"ha":360,"x_min":47,"x_max":238,"o":"m 47 846 l 47 903 l 238 903 l 238 0 l 179 0 l 179 846 l 47 846 z "},"2":{"ha":701,"x_min":67,"x_max":650,"o":"m 215 57 l 650 57 l 650 0 l 74 0 q 244 169 161 86 q 390 330 326 251 q 493 481 454 408 q 532 619 532 554 q 512 733 532 688 q 462 806 492 778 q 397 845 432 833 q 331 857 361 857 q 228 835 268 857 q 166 781 189 813 q 134 711 143 749 q 125 643 125 674 q 139 557 125 594 q 179 490 153 519 q 162 474 171 482 q 144 456 153 465 q 88 538 108 488 q 67 643 67 589 q 84 748 67 699 q 135 834 101 797 q 217 892 168 871 q 331 914 267 914 q 437 892 389 914 q 519 833 485 871 q 572 745 553 796 q 590 636 590 694 q 556 487 590 561 q 468 340 522 413 q 347 197 414 268 q 215 57 281 126 z "},"3":{"ha":715,"x_min":110,"x_max":615,"o":"m 233 482 q 360 664 297 574 q 488 846 424 754 l 143 846 l 143 903 l 592 903 l 346 561 q 451 534 401 557 q 537 474 500 511 q 594 387 574 436 q 615 279 615 338 q 592 167 615 219 q 530 74 569 114 q 437 12 490 35 q 324 -11 383 -11 q 205 15 260 -11 q 110 83 150 40 l 153 126 q 226 68 183 90 q 321 46 269 46 q 413 65 369 46 q 488 115 456 83 q 538 190 519 147 q 557 279 557 232 q 538 369 557 326 q 488 443 519 411 q 413 493 456 475 q 321 511 369 511 q 275 503 297 511 q 233 482 253 496 z "},"4":{"ha":715,"x_min":51,"x_max":694,"o":"m 501 743 q 335 527 418 635 q 169 311 253 419 l 501 311 l 501 743 m 51 254 q 306 584 179 419 q 560 914 432 749 l 560 311 l 694 311 l 694 254 l 560 254 l 560 0 l 501 0 l 501 254 l 51 254 z "},"5":{"ha":754,"x_min":153,"x_max":646,"o":"m 199 446 l 199 903 l 597 903 l 597 846 l 257 846 l 257 544 q 303 560 279 554 q 353 565 328 565 q 466 543 413 565 q 559 482 519 521 q 622 391 599 443 q 646 279 646 339 q 622 167 646 219 q 559 74 599 114 q 466 12 519 35 q 353 -11 413 -11 q 244 10 294 -11 q 153 69 193 32 q 174 89 164 79 q 196 108 185 99 q 266 63 226 79 q 351 46 306 46 q 443 65 400 46 q 518 115 486 83 q 569 190 550 147 q 588 279 588 232 q 569 368 588 326 q 518 441 550 410 q 443 490 486 472 q 351 508 400 508 q 263 492 303 508 q 199 446 222 475 z "},"6":{"ha":722,"x_min":68,"x_max":650,"o":"m 126 276 q 144 186 126 228 q 194 113 163 144 q 268 64 226 82 q 358 46 310 46 q 449 64 406 46 q 524 113 492 82 q 574 186 556 144 q 593 276 593 228 q 574 366 593 324 q 524 440 556 408 q 449 490 492 472 q 358 508 406 508 q 268 490 310 508 q 194 440 226 472 q 144 366 163 408 q 126 276 126 324 m 68 271 q 111 458 68 371 q 221 620 154 544 q 369 760 288 696 q 529 882 451 825 q 547 858 538 871 q 567 835 557 846 q 333 649 418 738 q 211 497 249 561 q 276 547 238 528 q 358 565 314 565 q 472 542 418 565 q 565 481 525 519 q 627 389 604 442 q 650 276 650 336 q 627 165 650 217 q 565 74 604 113 q 472 12 525 35 q 358 -11 418 -11 q 247 11 300 -11 q 155 72 194 33 q 92 161 115 110 q 68 271 69 213 z "},"7":{"ha":651,"x_min":19,"x_max":583,"o":"m 19 846 l 19 903 l 583 903 q 381 451 482 675 q 178 0 279 228 l 110 0 q 301 423 206 213 q 492 846 396 633 l 19 846 z "},"8":{"ha":708,"x_min":64,"x_max":646,"o":"m 201 703 q 213 648 201 674 q 246 604 225 622 q 294 576 267 586 q 353 565 321 565 q 459 604 417 565 q 501 703 501 643 q 490 761 501 733 q 459 810 479 789 q 412 844 439 832 q 353 857 385 857 q 294 844 321 857 q 246 810 267 832 q 213 761 225 789 q 201 703 201 733 m 124 279 q 141 190 124 232 q 190 115 158 147 q 262 63 221 82 q 351 44 303 44 q 443 63 400 44 q 518 115 486 82 q 569 190 550 147 q 588 279 588 232 q 569 367 588 326 q 519 440 550 408 q 444 490 488 471 q 354 508 401 508 q 263 490 306 508 q 190 441 221 472 q 141 368 158 410 q 124 279 124 326 m 64 279 q 115 441 64 371 q 247 542 167 511 q 172 608 200 564 q 143 708 143 653 q 159 788 143 750 q 203 853 175 825 q 269 898 232 882 q 350 914 307 914 q 432 897 393 914 q 499 852 471 881 q 543 786 526 824 q 560 706 560 749 q 531 608 560 651 q 458 542 503 565 q 533 501 499 526 q 593 441 568 475 q 632 366 618 407 q 646 279 646 325 q 622 167 646 219 q 559 74 599 114 q 466 12 519 35 q 353 -11 413 -11 q 241 12 293 -11 q 149 74 189 35 q 87 167 110 114 q 64 279 64 219 z "},"9":{"ha":729,"x_min":60,"x_max":643,"o":"m 583 593 q 565 683 583 640 q 516 756 547 725 q 442 806 485 788 q 353 824 400 824 q 262 806 304 824 q 188 756 219 788 q 137 683 156 725 q 118 593 118 640 q 137 503 118 544 q 188 429 156 461 q 262 379 219 397 q 353 361 304 361 q 442 379 400 361 q 516 429 485 397 q 565 503 547 461 q 583 593 583 544 m 643 593 q 600 408 643 494 q 490 247 557 322 q 340 108 422 172 q 182 -11 258 44 q 163 12 172 0 q 144 35 154 24 q 377 221 292 133 q 500 374 463 308 q 435 324 474 342 q 351 306 396 306 q 238 328 292 306 q 145 389 185 350 q 83 481 106 428 q 60 593 60 533 q 83 705 60 653 q 145 796 106 757 q 238 858 185 835 q 351 881 292 881 q 465 858 411 881 q 558 796 518 835 q 620 705 597 757 q 643 593 643 653 z "}," ":{"ha":417,"x_min":0,"x_max":0,"o":""},"t":{"ha":399,"x_min":51,"x_max":390,"o":"m 172 860 l 231 860 l 231 519 l 390 519 l 390 463 l 231 463 l 231 0 l 172 0 l 172 463 l 51 463 l 51 519 l 172 519 l 172 860 z "},"b":{"ha":735,"x_min":114,"x_max":661,"o":"m 603 261 q 586 345 603 306 q 541 414 569 385 q 473 460 513 443 q 388 476 433 476 q 302 460 342 476 q 234 414 263 443 q 189 345 206 385 q 172 261 172 306 q 189 178 172 217 q 234 110 206 139 q 302 64 263 81 q 388 47 342 47 q 473 64 433 47 q 541 110 513 81 q 586 178 569 139 q 603 261 603 217 m 661 261 q 640 155 661 204 q 581 69 618 106 q 494 12 544 33 q 388 -10 444 -10 q 308 1 344 -10 q 242 31 271 13 q 194 74 214 50 q 165 121 174 97 q 166 92 165 106 q 167 63 167 78 l 167 0 l 114 0 l 114 1042 l 172 1042 l 172 463 q 169 431 169 447 q 167 400 168 415 q 196 447 175 424 q 246 490 217 471 q 311 520 275 508 q 388 532 347 532 q 494 510 444 532 q 581 452 544 489 q 640 366 618 415 q 661 261 661 317 z "},"l":{"ha":260,"x_min":104,"x_max":161,"o":"m 161 0 l 104 0 l 104 1042 l 161 1042 l 161 0 z "},"m":{"ha":1106,"x_min":143,"x_max":985,"o":"m 143 521 l 196 521 l 196 472 q 196 429 196 449 q 197 386 196 410 q 285 492 225 453 q 425 532 346 531 q 540 494 496 532 q 592 393 585 456 q 681 493 621 456 q 817 532 740 531 q 938 489 893 532 q 985 376 982 446 l 985 0 l 928 0 l 928 361 q 895 439 925 406 q 807 475 865 472 q 726 461 765 475 q 658 422 688 447 q 612 363 629 397 q 593 289 594 329 l 593 0 l 535 0 l 535 361 q 502 439 532 406 q 414 475 472 472 q 333 460 372 475 q 265 421 294 446 q 219 361 236 396 q 201 285 201 326 l 201 0 l 143 0 l 143 521 z "},"i":{"ha":260,"x_min":88,"x_max":179,"o":"m 88 706 q 101 738 88 725 q 133 751 115 751 q 165 738 151 751 q 179 706 179 725 q 165 673 179 686 q 133 660 151 660 q 101 673 115 660 q 88 706 88 686 m 161 0 l 104 0 l 104 521 l 161 521 l 161 0 z "},"h":{"ha":694,"x_min":143,"x_max":593,"o":"m 143 1042 l 201 1042 l 201 449 l 197 386 q 285 491 225 453 q 425 532 346 529 q 546 489 501 532 q 593 376 590 446 l 593 0 l 535 0 l 535 361 q 502 439 532 406 q 414 475 472 472 q 333 460 372 475 q 265 421 294 446 q 219 361 236 396 q 201 285 201 326 l 201 0 l 143 0 l 143 1042 z "},"c":{"ha":539,"x_min":50,"x_max":496,"o":"m 458 93 q 477 72 468 82 q 494 50 486 61 q 415 6 458 22 q 322 -10 372 -10 q 216 12 265 -10 q 130 69 167 33 q 72 155 93 106 q 50 261 50 204 q 72 367 50 317 q 130 453 93 417 q 216 510 167 489 q 322 532 265 532 q 417 516 372 532 q 496 472 461 500 q 477 451 486 461 q 458 429 468 440 q 397 464 431 451 q 322 476 363 476 q 238 460 276 476 q 170 414 199 443 q 125 345 142 385 q 108 261 108 306 q 125 178 108 217 q 170 110 142 139 q 238 64 199 81 q 322 47 276 47 q 458 93 401 47 z "},"q":{"ha":711,"x_min":71,"x_max":618,"o":"m 129 260 q 146 176 129 215 q 192 107 163 136 q 260 61 221 78 q 344 44 299 44 q 430 61 390 44 q 499 107 469 78 q 544 176 528 136 q 561 260 561 215 q 544 344 561 306 q 499 412 528 383 q 430 457 469 440 q 344 474 390 474 q 260 457 299 474 q 192 412 221 440 q 146 344 163 383 q 129 260 129 306 m 71 260 q 92 365 71 315 q 151 451 114 415 q 238 509 188 488 q 344 531 288 531 q 422 519 385 531 q 488 488 458 507 q 538 444 517 468 q 567 396 558 421 q 568 458 568 428 q 568 521 568 489 l 618 521 l 618 -347 l 560 -347 l 560 61 q 563 90 561 76 q 567 118 564 104 q 538 71 557 94 q 489 29 518 47 q 424 0 460 11 q 344 -11 388 -11 q 238 10 288 -11 q 151 69 188 32 q 92 155 114 106 q 71 260 71 204 z "},"u":{"ha":735,"x_min":143,"x_max":593,"o":"m 593 -6 l 535 -6 l 535 72 l 539 135 q 449 28 511 68 q 311 -11 388 -11 q 190 32 235 -11 q 143 144 146 75 l 143 521 l 201 521 l 201 160 q 234 82 204 115 q 322 46 264 49 q 403 60 364 46 q 471 100 442 75 q 517 160 500 125 q 535 236 535 194 l 535 521 l 593 521 l 593 -6 z "},"r":{"ha":460,"x_min":143,"x_max":415,"o":"m 411 475 q 328 459 367 474 q 263 419 290 444 q 218 360 235 394 q 201 285 201 325 l 201 0 l 143 0 l 143 521 l 196 521 l 196 472 q 196 429 196 449 q 197 386 196 410 q 290 492 228 454 q 415 532 351 531 l 411 475 z "},"e":{"ha":626,"x_min":50,"x_max":561,"o":"m 322 476 q 243 462 281 476 q 178 421 206 447 q 133 360 150 394 q 111 285 115 325 q 110 252 110 268 q 114 221 111 236 q 300 295 207 258 q 488 369 393 332 q 419 447 464 417 q 322 476 375 476 m 561 338 q 346 252 453 294 q 131 167 239 210 q 206 81 154 114 q 322 47 257 47 q 403 63 365 47 q 468 106 440 78 q 486 84 478 94 q 504 63 494 74 q 422 10 468 29 q 322 -10 376 -10 q 216 12 265 -10 q 130 69 167 33 q 72 155 93 106 q 50 261 50 204 q 72 367 50 317 q 130 453 93 417 q 216 510 167 489 q 322 532 265 532 q 401 517 364 532 q 470 477 439 503 q 525 416 501 451 q 561 338 549 381 z "},"p":{"ha":729,"x_min":93,"x_max":640,"o":"m 582 260 q 565 344 582 306 q 520 412 549 383 q 452 457 492 440 q 367 474 413 474 q 281 457 321 474 q 213 412 242 440 q 168 344 185 383 q 151 260 151 306 q 168 176 151 215 q 213 107 185 136 q 281 61 242 78 q 367 44 321 44 q 452 61 413 44 q 520 107 492 78 q 565 176 549 136 q 582 260 582 215 m 640 260 q 619 155 640 204 q 560 69 597 106 q 474 10 524 32 q 367 -11 424 -11 q 288 0 324 -11 q 223 29 251 11 q 174 71 194 47 q 146 118 154 94 q 149 90 147 104 q 151 61 150 76 l 151 -347 l 93 -347 l 93 521 l 143 521 q 144 458 143 489 q 144 396 144 428 q 174 444 153 421 q 224 488 194 468 q 290 519 253 507 q 367 531 326 531 q 474 509 424 531 q 560 451 524 488 q 619 365 597 415 q 640 260 640 315 z "},"á":{"ha":765,"x_min":68,"x_max":615,"o":"m 126 261 q 143 178 126 217 q 188 110 160 139 q 256 64 217 81 q 342 47 296 47 q 426 64 388 47 q 494 110 465 81 q 540 178 524 139 q 557 261 557 217 q 540 345 557 306 q 494 414 524 385 q 426 460 465 443 q 342 476 388 476 q 256 460 296 476 q 188 414 217 443 q 143 345 160 385 q 126 261 126 306 m 68 261 q 90 366 68 317 q 148 452 111 415 q 235 510 185 489 q 342 532 285 532 q 418 520 382 532 q 483 490 454 508 q 533 447 513 471 q 563 399 553 422 q 565 460 563 429 q 568 521 567 490 l 615 521 l 615 0 l 563 0 l 563 63 q 563 92 563 78 q 564 121 564 106 q 535 74 556 97 q 487 31 515 50 q 422 1 458 13 q 342 -10 385 -10 q 235 12 285 -10 q 148 69 185 33 q 90 155 111 106 q 68 261 68 204 m 322 665 q 385 758 354 711 q 447 850 415 804 l 507 850 q 438 758 472 804 q 368 665 403 711 l 322 665 z "},"é":{"ha":626,"x_min":50,"x_max":561,"o":"m 322 476 q 243 462 281 476 q 178 421 206 447 q 133 360 150 394 q 111 285 115 325 q 110 252 110 268 q 114 221 111 236 q 300 295 207 258 q 488 369 393 332 q 419 447 464 417 q 322 476 375 476 m 561 338 q 346 252 453 294 q 131 167 239 210 q 206 81 154 114 q 322 47 257 47 q 403 63 365 47 q 468 106 440 78 q 486 84 478 94 q 504 63 494 74 q 422 10 468 29 q 322 -10 376 -10 q 216 12 265 -10 q 130 69 167 33 q 72 155 93 106 q 50 261 50 204 q 72 367 50 317 q 130 453 93 417 q 216 510 167 489 q 322 532 265 532 q 401 517 364 532 q 470 477 439 503 q 525 416 501 451 q 561 338 549 381 m 315 665 q 378 758 347 711 q 440 850 408 804 l 500 850 q 431 758 465 804 q 361 665 396 711 l 315 665 z "},"í":{"ha":275,"x_min":99,"x_max":294,"o":"m 156 0 l 99 0 l 99 521 l 156 521 l 156 0 m 110 665 q 172 758 142 711 q 235 850 203 804 l 294 850 q 225 758 260 804 q 156 665 190 711 l 110 665 z "},"ó":{"ha":651,"x_min":50,"x_max":597,"o":"m 50 261 q 72 367 50 317 q 130 453 93 417 q 216 512 167 490 q 322 533 265 533 q 429 512 379 533 q 517 453 479 490 q 576 367 554 417 q 597 261 597 317 q 576 155 597 204 q 517 69 554 106 q 429 12 479 33 q 322 -10 379 -10 q 216 12 265 -10 q 130 69 167 33 q 72 155 93 106 q 50 261 50 204 m 108 261 q 125 178 108 217 q 171 110 142 139 q 239 64 200 81 q 322 47 278 47 q 406 64 367 47 q 474 110 444 81 q 520 178 503 139 q 538 261 538 217 q 520 344 538 306 q 474 413 503 383 q 406 459 444 442 q 322 476 367 476 q 239 459 278 476 q 171 413 200 442 q 125 344 142 383 q 108 261 108 306 m 321 665 q 383 758 353 711 q 446 850 414 804 l 506 850 q 436 758 471 804 q 367 665 401 711 l 321 665 z "},"ú":{"ha":735,"x_min":143,"x_max":593,"o":"m 593 -6 l 535 -6 l 535 72 l 539 135 q 449 28 511 68 q 311 -11 388 -11 q 190 32 235 -11 q 143 144 146 75 l 143 521 l 201 521 l 201 160 q 234 82 204 115 q 322 46 264 49 q 403 60 364 46 q 471 100 442 75 q 517 160 500 125 q 535 236 535 194 l 535 521 l 593 521 l 593 -6 m 321 665 q 383 758 353 711 q 446 850 414 804 l 506 850 q 436 758 471 804 q 367 665 401 711 l 321 665 z "},"ä":{"ha":765,"x_min":68,"x_max":615,"o":"m 126 261 q 143 178 126 217 q 188 110 160 139 q 256 64 217 81 q 342 47 296 47 q 426 64 388 47 q 494 110 465 81 q 540 178 524 139 q 557 261 557 217 q 540 345 557 306 q 494 414 524 385 q 426 460 465 443 q 342 476 388 476 q 256 460 296 476 q 188 414 217 443 q 143 345 160 385 q 126 261 126 306 m 68 261 q 90 366 68 317 q 148 452 111 415 q 235 510 185 489 q 342 532 285 532 q 418 520 382 532 q 483 490 454 508 q 533 447 513 471 q 563 399 553 422 q 565 460 563 429 q 568 521 567 490 l 615 521 l 615 0 l 563 0 l 563 63 q 563 92 563 78 q 564 121 564 106 q 535 74 556 97 q 487 31 515 50 q 422 1 458 13 q 342 -10 385 -10 q 235 12 285 -10 q 148 69 185 33 q 90 155 111 106 q 68 261 68 204 m 435 706 q 449 738 435 725 q 481 751 463 751 q 512 738 499 751 q 525 706 525 725 q 512 673 525 686 q 481 660 499 660 q 449 673 463 660 q 435 706 435 686 m 206 706 q 219 738 206 725 q 251 751 233 751 q 282 738 268 751 q 296 706 296 725 q 282 673 296 686 q 251 660 268 660 q 219 673 233 660 q 206 706 206 686 z "},"ë":{"ha":626,"x_min":50,"x_max":561,"o":"m 322 476 q 243 462 281 476 q 178 421 206 447 q 133 360 150 394 q 111 285 115 325 q 110 252 110 268 q 114 221 111 236 q 300 295 207 258 q 488 369 393 332 q 419 447 464 417 q 322 476 375 476 m 561 338 q 346 252 453 294 q 131 167 239 210 q 206 81 154 114 q 322 47 257 47 q 403 63 365 47 q 468 106 440 78 q 486 84 478 94 q 504 63 494 74 q 422 10 468 29 q 322 -10 376 -10 q 216 12 265 -10 q 130 69 167 33 q 72 155 93 106 q 50 261 50 204 q 72 367 50 317 q 130 453 93 417 q 216 510 167 489 q 322 532 265 532 q 401 517 364 532 q 470 477 439 503 q 525 416 501 451 q 561 338 549 381 m 388 706 q 401 738 388 725 q 433 751 415 751 q 465 738 451 751 q 478 706 478 725 q 465 673 478 686 q 433 660 451 660 q 401 673 415 660 q 388 706 388 686 m 158 706 q 172 738 158 725 q 204 751 186 751 q 235 738 221 751 q 249 706 249 725 q 235 673 249 686 q 204 660 221 660 q 172 673 186 660 q 158 706 158 686 z "},"ö":{"ha":651,"x_min":50,"x_max":597,"o":"m 50 261 q 72 367 50 317 q 130 453 93 417 q 216 512 167 490 q 322 533 265 533 q 429 512 379 533 q 517 453 479 490 q 576 367 554 417 q 597 261 597 317 q 576 155 597 204 q 517 69 554 106 q 429 12 479 33 q 322 -10 379 -10 q 216 12 265 -10 q 130 69 167 33 q 72 155 93 106 q 50 261 50 204 m 108 261 q 125 178 108 217 q 171 110 142 139 q 239 64 200 81 q 322 47 278 47 q 406 64 367 47 q 474 110 444 81 q 520 178 503 139 q 538 261 538 217 q 520 344 538 306 q 474 413 503 383 q 406 459 444 442 q 322 476 367 476 q 239 459 278 476 q 171 413 200 442 q 125 344 142 383 q 108 261 108 306 m 396 706 q 410 738 396 725 q 442 751 424 751 q 473 738 460 751 q 486 706 486 725 q 473 673 486 686 q 442 660 460 660 q 410 673 424 660 q 396 706 396 686 m 167 706 q 181 738 167 725 q 213 751 194 751 q 243 738 229 751 q 257 706 257 725 q 243 673 257 686 q 213 660 229 660 q 181 673 194 660 q 167 706 167 686 z "},"ü":{"ha":735,"x_min":143,"x_max":593,"o":"m 593 -6 l 535 -6 l 535 72 l 539 135 q 449 28 511 68 q 311 -11 388 -11 q 190 32 235 -11 q 143 144 146 75 l 143 521 l 201 521 l 201 160 q 234 82 204 115 q 322 46 264 49 q 403 60 364 46 q 471 100 442 75 q 517 160 500 125 q 535 236 535 194 l 535 521 l 593 521 l 593 -6 m 432 706 q 446 738 432 725 q 478 751 460 751 q 509 738 496 751 q 522 706 522 725 q 509 673 522 686 q 478 660 496 660 q 446 673 460 660 q 432 706 432 686 m 203 706 q 217 738 203 725 q 249 751 231 751 q 279 738 265 751 q 293 706 293 725 q 279 673 293 686 q 249 660 265 660 q 217 673 231 660 q 203 706 203 686 z "},"à":{"ha":765,"x_min":68,"x_max":615,"o":"m 126 261 q 143 178 126 217 q 188 110 160 139 q 256 64 217 81 q 342 47 296 47 q 426 64 388 47 q 494 110 465 81 q 540 178 524 139 q 557 261 557 217 q 540 345 557 306 q 494 414 524 385 q 426 460 465 443 q 342 476 388 476 q 256 460 296 476 q 188 414 217 443 q 143 345 160 385 q 126 261 126 306 m 68 261 q 90 366 68 317 q 148 452 111 415 q 235 510 185 489 q 342 532 285 532 q 418 520 382 532 q 483 490 454 508 q 533 447 513 471 q 563 399 553 422 q 565 460 563 429 q 568 521 567 490 l 615 521 l 615 0 l 563 0 l 563 63 q 563 92 563 78 q 564 121 564 106 q 535 74 556 97 q 487 31 515 50 q 422 1 458 13 q 342 -10 385 -10 q 235 12 285 -10 q 148 69 185 33 q 90 155 111 106 q 68 261 68 204 m 246 850 q 308 758 278 804 q 371 665 339 711 l 325 665 q 256 758 290 711 q 186 850 221 804 l 246 850 z "},"è":{"ha":626,"x_min":50,"x_max":561,"o":"m 322 476 q 243 462 281 476 q 178 421 206 447 q 133 360 150 394 q 111 285 115 325 q 110 252 110 268 q 114 221 111 236 q 300 295 207 258 q 488 369 393 332 q 419 447 464 417 q 322 476 375 476 m 561 338 q 346 252 453 294 q 131 167 239 210 q 206 81 154 114 q 322 47 257 47 q 403 63 365 47 q 468 106 440 78 q 486 84 478 94 q 504 63 494 74 q 422 10 468 29 q 322 -10 376 -10 q 216 12 265 -10 q 130 69 167 33 q 72 155 93 106 q 50 261 50 204 q 72 367 50 317 q 130 453 93 417 q 216 510 167 489 q 322 532 265 532 q 401 517 364 532 q 470 477 439 503 q 525 416 501 451 q 561 338 549 381 m 197 850 q 260 758 229 804 q 322 665 290 711 l 276 665 q 207 758 242 711 q 138 850 172 804 l 197 850 z "},"ì":{"ha":242,"x_min":-33,"x_max":161,"o":"m 161 0 l 104 0 l 104 521 l 161 521 l 161 0 m 26 850 q 89 758 58 804 q 151 665 119 711 l 106 665 q 36 758 71 711 q -33 850 1 804 l 26 850 z "},"ò":{"ha":651,"x_min":50,"x_max":597,"o":"m 50 261 q 72 367 50 317 q 130 453 93 417 q 216 512 167 490 q 322 533 265 533 q 429 512 379 533 q 517 453 479 490 q 576 367 554 417 q 597 261 597 317 q 576 155 597 204 q 517 69 554 106 q 429 12 479 33 q 322 -10 379 -10 q 216 12 265 -10 q 130 69 167 33 q 72 155 93 106 q 50 261 50 204 m 108 261 q 125 178 108 217 q 171 110 142 139 q 239 64 200 81 q 322 47 278 47 q 406 64 367 47 q 474 110 444 81 q 520 178 503 139 q 538 261 538 217 q 520 344 538 306 q 474 413 503 383 q 406 459 444 442 q 322 476 367 476 q 239 459 278 476 q 171 413 200 442 q 125 344 142 383 q 108 261 108 306 m 201 850 q 264 758 233 804 q 326 665 294 711 l 281 665 q 211 758 246 711 q 142 850 176 804 l 201 850 z "},"ù":{"ha":735,"x_min":143,"x_max":593,"o":"m 593 -6 l 535 -6 l 535 72 l 539 135 q 449 28 511 68 q 311 -11 388 -11 q 190 32 235 -11 q 143 144 146 75 l 143 521 l 201 521 l 201 160 q 234 82 204 115 q 322 46 264 49 q 403 60 364 46 q 471 100 442 75 q 517 160 500 125 q 535 236 535 194 l 535 521 l 593 521 l 593 -6 m 276 850 q 339 758 308 804 q 401 665 369 711 l 356 665 q 286 758 321 711 q 217 850 251 804 l 276 850 z "},",":{"ha":278,"x_min":24,"x_max":196,"o":"m 196 119 q 136 -24 165 47 q 76 -167 107 -94 l 24 -167 q 77 -24 51 -94 q 131 119 103 47 l 196 119 z "},".":{"ha":226,"x_min":74,"x_max":164,"o":"m 74 46 q 88 78 74 65 q 119 92 101 92 q 150 78 136 92 q 164 46 164 65 q 150 13 164 26 q 119 0 136 0 q 88 13 101 0 q 74 46 74 26 z "},"f":{"ha":408,"x_min":31,"x_max":408,"o":"m 31 467 l 31 524 l 121 524 l 121 719 q 143 856 121 796 q 204 956 165 915 q 296 1017 243 996 q 408 1042 349 1039 l 408 986 q 319 967 361 985 q 245 914 276 949 q 196 831 214 879 q 178 721 178 782 l 178 524 l 351 524 l 351 467 l 178 467 l 178 0 l 121 0 l 121 467 l 31 467 z "},"å":{"ha":765,"x_min":68,"x_max":615,"o":"m 289 750 q 306 708 289 726 q 347 690 324 690 q 389 708 371 690 q 407 750 407 726 q 389 791 407 774 q 347 808 371 808 q 306 791 324 808 q 289 750 289 774 m 246 750 q 276 822 246 792 q 347 851 306 851 q 419 822 389 851 q 449 750 449 792 q 419 678 449 708 q 347 649 389 649 q 276 678 306 649 q 246 750 246 708 m 126 261 q 143 178 126 217 q 188 110 160 139 q 256 64 217 81 q 342 47 296 47 q 426 64 388 47 q 494 110 465 81 q 540 178 524 139 q 557 261 557 217 q 540 345 557 306 q 494 414 524 385 q 426 460 465 443 q 342 476 388 476 q 256 460 296 476 q 188 414 217 443 q 143 345 160 385 q 126 261 126 306 m 68 261 q 90 366 68 317 q 148 452 111 415 q 235 510 185 489 q 342 532 285 532 q 418 520 382 532 q 483 490 454 508 q 533 447 513 471 q 563 399 553 422 q 565 460 563 429 q 568 521 567 490 l 615 521 l 615 0 l 563 0 l 563 63 q 563 92 563 78 q 564 121 564 106 q 535 74 556 97 q 487 31 515 50 q 422 1 458 13 q 342 -10 385 -10 q 235 12 285 -10 q 148 69 185 33 q 90 155 111 106 q 68 261 68 204 z "},"v":{"ha":694,"x_min":75,"x_max":644,"o":"m 360 -32 q 217 244 289 107 q 75 521 146 382 l 133 521 q 250 299 190 411 q 360 74 310 186 q 469 298 410 186 q 586 521 529 410 l 644 521 q 360 -32 504 247 z "},"j":{"ha":313,"x_min":58,"x_max":210,"o":"m 119 706 q 133 738 119 725 q 165 751 147 751 q 196 738 182 751 q 210 706 210 725 q 196 673 210 686 q 165 660 182 660 q 133 673 147 660 q 119 706 119 686 m 100 -250 l 58 -208 q 114 -124 93 -174 q 135 -7 135 -74 l 135 521 l 192 521 l 192 -6 q 167 -149 192 -87 q 100 -250 143 -210 z "},"s":{"ha":489,"x_min":79,"x_max":411,"o":"m 390 469 q 373 449 382 458 q 357 428 364 439 q 310 460 340 447 q 249 472 279 472 q 215 467 232 472 q 185 452 199 463 q 163 426 171 442 q 156 386 156 410 q 176 338 157 356 q 224 309 196 321 q 285 287 251 297 q 346 260 318 276 q 392 217 374 243 q 411 146 411 190 q 402 95 411 122 q 374 44 393 68 q 322 5 354 21 q 243 -11 290 -11 q 153 4 200 -11 q 79 54 107 19 q 97 75 89 65 q 117 96 106 85 q 175 59 139 72 q 247 46 211 46 q 278 51 260 46 q 313 67 296 56 q 341 97 329 79 q 353 142 353 115 q 335 197 353 178 q 288 228 317 217 q 226 249 260 240 q 165 274 193 258 q 117 314 136 289 q 97 385 97 339 q 111 448 97 421 q 147 493 125 475 q 196 520 169 511 q 247 529 222 529 q 319 516 276 529 q 390 469 361 503 z "},"k":{"ha":624,"x_min":107,"x_max":526,"o":"m 454 533 q 472 516 463 525 q 489 497 481 507 q 392 406 438 450 q 296 315 347 363 q 411 158 354 236 q 526 0 468 79 l 458 0 q 356 138 407 69 q 254 276 304 207 q 209 234 231 256 q 165 193 188 213 l 165 0 l 107 0 l 107 1042 l 165 1042 l 165 264 q 310 399 240 335 q 454 533 379 463 z "},"y":{"ha":683,"x_min":53,"x_max":639,"o":"m 204 -347 l 143 -347 q 229 -176 186 -261 q 315 -3 272 -90 q 184 258 249 128 q 53 521 119 389 l 114 521 q 233 288 172 404 q 346 53 294 171 q 459 288 399 171 q 578 521 519 404 l 639 521 q 422 87 531 303 q 204 -347 314 -129 z "},"ø":{"ha":650,"x_min":50,"x_max":597,"o":"m 108 261 q 123 183 108 219 q 163 118 138 146 q 299 281 232 200 q 436 443 367 361 q 383 467 413 458 q 322 476 354 476 q 238 460 276 476 q 170 414 199 443 q 125 345 142 385 q 108 261 108 306 m 322 47 q 408 64 368 47 q 476 110 447 81 q 522 178 506 139 q 539 261 539 217 q 521 347 539 307 q 471 417 503 388 q 333 252 401 333 q 194 89 264 171 q 322 47 249 47 m 50 261 q 72 367 50 317 q 130 453 93 417 q 216 510 167 489 q 322 532 265 532 q 403 520 365 532 q 474 488 442 508 q 497 515 485 501 q 521 542 510 528 q 537 527 529 535 q 553 513 544 519 q 531 487 542 500 q 508 460 519 474 q 573 372 549 424 q 597 261 597 319 q 576 155 597 204 q 517 69 554 106 q 429 12 479 33 q 322 -10 379 -10 q 233 5 275 -10 q 157 46 192 19 q 129 13 143 29 q 101 -21 115 -4 q 85 -7 93 -14 q 68 7 76 0 q 97 40 83 24 q 125 74 110 57 q 69 158 89 110 q 50 261 50 206 z "},"w":{"ha":1072,"x_min":78,"x_max":1008,"o":"m 513 404 q 484 463 497 433 q 456 521 471 492 l 514 521 q 625 298 568 410 q 732 74 682 186 q 839 298 782 186 q 950 521 896 410 l 1008 521 q 870 244 939 382 q 732 -32 801 107 q 638 157 685 64 q 543 346 590 250 q 449 157 496 250 q 354 -32 401 64 q 216 244 285 107 q 78 521 147 382 l 136 521 q 247 298 190 410 q 354 74 304 186 q 431 239 390 157 q 513 404 472 321 z "},"x":{"ha":585,"x_min":50,"x_max":522,"o":"m 244 268 q 151 394 197 332 q 58 521 104 457 l 131 521 l 293 300 q 372 410 333 356 q 451 519 411 464 l 522 519 q 425 385 474 453 q 328 251 376 318 q 421 125 375 188 q 514 0 467 63 l 442 0 q 360 110 401 54 q 279 219 319 165 q 201 110 239 165 q 122 0 163 54 l 50 0 q 147 134 99 67 q 244 268 196 201 z "},"z":{"ha":626,"x_min":58,"x_max":560,"o":"m 185 521 l 533 521 l 533 464 q 336 260 429 360 q 139 57 243 161 l 560 57 l 560 0 l 58 0 l 58 57 q 256 261 163 161 q 453 465 349 361 l 175 465 q 108 482 132 465 q 85 539 85 499 l 85 569 l 143 569 l 143 553 q 152 528 143 536 q 185 521 161 521 z "},"o":{"ha":654,"x_min":50,"x_max":597,"o":"m 50 261 q 72 367 50 317 q 130 453 93 417 q 216 512 167 490 q 322 533 265 533 q 429 512 379 533 q 517 453 479 490 q 576 367 554 417 q 597 261 597 317 q 576 155 597 204 q 517 69 554 106 q 429 12 479 33 q 322 -10 379 -10 q 216 12 265 -10 q 130 69 167 33 q 72 155 93 106 q 50 261 50 204 m 108 261 q 125 178 108 217 q 171 110 142 139 q 239 64 200 81 q 322 47 278 47 q 406 64 367 47 q 474 110 444 81 q 520 178 503 139 q 538 261 538 217 q 520 344 538 306 q 474 413 503 383 q 406 459 444 442 q 322 476 367 476 q 239 459 278 476 q 171 413 200 442 q 125 344 142 383 q 108 261 108 306 z "},"æ":{"ha":874,"x_min":65,"x_max":792,"o":"m 500 338 l 500 285 q 609 327 554 306 q 718 369 664 349 q 649 447 693 418 q 553 476 606 476 q 508 472 529 476 q 468 460 488 467 q 493 410 486 440 q 500 338 500 381 m 442 225 l 332 225 q 276 225 311 225 q 206 217 240 225 q 148 193 172 210 q 124 143 124 176 q 139 94 124 113 q 178 65 154 75 q 231 50 203 54 q 286 46 260 46 q 340 50 313 46 q 391 65 368 54 q 428 97 414 76 q 442 150 442 117 l 442 225 m 135 432 q 117 451 126 442 q 100 471 108 461 q 135 495 114 483 q 182 515 157 507 q 234 528 207 524 q 285 533 261 533 q 435 507 386 533 q 553 533 490 533 q 632 519 594 533 q 701 478 669 504 q 756 416 732 451 q 792 338 779 381 q 646 281 718 310 q 500 224 574 251 l 500 201 l 500 181 q 492 113 500 140 q 463 65 483 86 q 553 47 503 47 q 633 63 596 47 q 699 106 671 78 q 716 85 707 94 q 735 64 725 75 q 652 10 699 29 q 553 -10 606 -10 q 428 19 483 -10 q 285 -11 379 -11 q 194 -3 235 -11 q 126 22 154 4 q 81 69 97 39 q 65 144 65 99 q 83 210 65 183 q 128 254 100 238 q 194 278 157 271 q 271 285 231 285 l 442 285 l 442 340 q 436 401 442 375 q 414 443 431 426 q 366 468 397 460 q 283 476 335 476 q 243 472 264 476 q 201 462 222 468 q 163 448 181 456 q 135 432 146 440 z "},"A":{"ha":1028,"x_min":83,"x_max":944,"o":"m 526 849 q 520 868 524 858 q 514 888 517 878 q 433 679 478 782 q 343 472 388 576 l 686 472 q 606 661 646 568 q 526 849 567 754 m 944 0 l 886 0 q 798 208 842 104 q 710 417 754 313 l 319 417 q 231 208 275 313 q 143 0 188 104 l 83 0 q 299 508 192 256 q 514 1017 406 761 q 729 508 622 761 q 944 0 836 256 z "},"ï":{"ha":376,"x_min":36,"x_max":356,"o":"m 229 0 l 171 0 l 171 521 l 229 521 l 229 0 m 265 706 q 279 738 265 725 q 311 751 293 751 q 342 738 329 751 q 356 706 356 725 q 342 673 356 686 q 311 660 329 660 q 279 673 293 660 q 265 706 265 686 m 36 706 q 50 738 36 725 q 82 751 64 751 q 113 738 99 751 q 126 706 126 725 q 113 673 126 686 q 82 660 99 660 q 50 673 64 660 q 36 706 36 686 z "},"ý":{"ha":678,"x_min":53,"x_max":639,"o":"m 204 -347 l 143 -347 q 229 -176 186 -261 q 315 -3 272 -90 q 184 258 249 128 q 53 521 119 389 l 114 521 q 233 288 172 404 q 346 53 294 171 q 459 288 399 171 q 578 521 519 404 l 639 521 q 422 87 531 303 q 204 -347 314 -129 m 335 665 q 397 758 367 711 q 460 850 428 804 l 519 850 q 450 758 485 804 q 381 665 415 711 l 335 665 z "},"ÿ":{"ha":678,"x_min":53,"x_max":639,"o":"m 204 -347 l 143 -347 q 229 -176 186 -261 q 315 -3 272 -90 q 184 258 249 128 q 53 521 119 389 l 114 521 q 233 288 172 404 q 346 53 294 171 q 459 288 399 171 q 578 521 519 404 l 639 521 q 422 87 531 303 q 204 -347 314 -129 m 424 706 q 438 738 424 725 q 469 751 451 751 q 501 738 488 751 q 514 706 514 725 q 501 673 514 686 q 469 660 488 660 q 438 673 451 660 q 424 706 424 686 m 194 706 q 208 738 194 725 q 240 751 222 751 q 271 738 257 751 q 285 706 285 725 q 271 673 285 686 q 240 660 257 660 q 208 673 222 660 q 194 706 194 686 z "},"B":{"ha":743,"x_min":103,"x_max":651,"o":"m 160 917 l 160 517 l 343 517 q 500 574 442 517 q 558 725 558 632 q 542 813 558 776 q 497 873 526 850 q 427 906 468 896 q 338 917 386 917 l 160 917 m 160 461 l 160 56 l 344 56 q 441 68 396 56 q 520 106 486 81 q 574 167 554 131 q 594 254 594 204 q 572 347 594 308 q 510 412 549 386 q 423 449 472 438 q 321 461 374 461 l 160 461 m 103 0 l 103 972 l 325 972 q 444 958 390 972 q 535 915 497 944 q 594 840 574 886 q 615 729 615 793 q 573 578 615 643 q 443 489 531 513 q 522 461 485 481 q 588 411 560 442 q 634 340 617 381 q 651 250 651 300 q 626 141 651 188 q 559 63 601 94 q 463 16 517 32 q 350 0 408 0 l 103 0 z "},"D":{"ha":906,"x_min":106,"x_max":799,"o":"m 106 972 l 310 972 q 499 938 410 972 q 654 841 588 904 q 760 688 721 778 q 799 486 799 597 q 770 318 799 404 q 678 161 742 232 q 512 45 614 90 q 263 0 410 0 l 106 0 l 106 972 m 163 917 l 163 57 l 283 57 q 485 94 399 57 q 628 190 571 131 q 713 327 685 250 q 742 486 742 404 q 708 665 742 585 q 615 801 674 744 q 477 887 556 857 q 310 917 399 917 l 163 917 z "},"E":{"ha":835,"x_min":118,"x_max":714,"o":"m 118 0 l 118 972 l 694 972 l 694 917 l 175 917 l 175 518 l 640 518 l 640 463 l 175 463 l 175 56 l 714 56 l 714 0 l 118 0 z "},"H":{"ha":972,"x_min":131,"x_max":846,"o":"m 131 0 l 131 972 l 188 972 l 188 518 l 785 518 l 785 972 l 846 972 q 844 486 844 728 q 842 0 843 244 l 785 0 l 785 463 l 188 463 l 188 0 l 131 0 z "},"I":{"ha":344,"x_min":144,"x_max":201,"o":"m 144 972 l 201 972 l 201 0 l 144 0 l 144 972 z "},"J":{"ha":433,"x_min":25,"x_max":313,"o":"m 25 -199 l 25 -143 q 117 -121 75 -140 q 189 -67 158 -101 q 237 17 219 -32 q 254 129 254 67 l 254 972 l 313 972 l 313 125 q 290 -12 313 47 q 229 -112 268 -71 q 138 -175 190 -153 q 25 -199 85 -197 z "},"K":{"ha":833,"x_min":93,"x_max":772,"o":"m 772 0 l 701 0 q 486 273 593 138 q 271 547 379 408 q 210 490 239 518 q 150 432 181 461 l 150 0 l 93 0 l 93 972 l 150 972 l 150 536 q 149 515 150 525 q 147 494 149 506 q 160 510 154 503 q 172 524 165 517 q 408 748 290 636 q 643 972 525 860 l 718 972 l 310 585 q 542 292 428 438 q 772 0 656 147 z "},"M":{"ha":1301,"x_min":139,"x_max":1156,"o":"m 139 1017 q 393 687 267 851 q 647 357 519 522 q 901 687 775 522 q 1156 1017 1028 851 l 1156 0 l 1097 0 l 1097 619 l 1097 799 q 1099 826 1099 813 q 1100 854 1100 839 q 876 555 990 701 q 647 260 761 408 q 458 506 551 385 q 269 753 365 628 l 211 828 q 203 841 207 835 q 194 854 199 847 q 195 826 194 839 q 197 799 196 813 l 197 0 l 139 0 l 139 1017 z "},"N":{"ha":1129,"x_min":139,"x_max":988,"o":"m 988 972 l 988 -44 q 603 399 793 179 q 219 843 413 619 q 206 861 213 853 q 193 879 200 869 q 195 857 194 868 q 197 835 196 846 l 197 0 l 139 0 l 139 1017 q 524 569 333 790 q 907 122 714 347 q 920 104 914 113 q 933 86 926 96 q 931 108 932 97 q 929 131 931 119 l 929 972 l 988 972 z "},"P":{"ha":644,"x_min":103,"x_max":608,"o":"m 160 514 l 304 514 q 424 533 376 514 q 501 583 472 553 q 540 649 529 614 q 551 718 551 685 q 533 793 551 757 q 481 857 514 829 q 402 901 447 885 q 306 917 357 917 l 160 917 l 160 514 m 103 0 l 103 972 l 311 972 q 406 958 354 972 q 502 914 457 944 q 578 835 547 883 q 608 718 608 786 q 533 528 608 599 q 314 457 457 457 l 160 457 l 160 0 l 103 0 z "},"R":{"ha":701,"x_min":103,"x_max":619,"o":"m 160 514 l 304 514 q 424 533 376 514 q 501 583 472 553 q 540 649 529 614 q 551 718 551 685 q 533 793 551 757 q 481 857 514 829 q 402 901 447 885 q 306 917 357 917 l 160 917 l 160 514 m 103 0 l 103 972 l 311 972 q 406 958 354 972 q 502 914 457 944 q 578 835 547 883 q 608 718 608 786 q 555 552 608 618 q 400 465 501 486 q 510 232 456 347 q 619 0 565 117 l 557 0 q 449 231 503 117 q 340 460 394 344 q 316 458 328 458 q 292 457 304 457 l 160 457 l 160 0 l 103 0 z "},"U":{"ha":906,"x_min":128,"x_max":783,"o":"m 454 -11 q 324 10 383 -11 q 220 72 264 31 q 152 174 176 113 q 128 314 128 235 l 128 972 l 185 972 l 185 318 q 205 201 185 251 q 260 115 225 150 q 346 63 296 81 q 454 44 396 44 q 562 63 513 44 q 648 115 611 81 q 705 201 685 150 q 725 318 725 251 l 725 972 l 783 972 l 783 314 q 758 174 783 235 q 689 72 733 113 q 584 10 644 31 q 454 -11 524 -11 z "},"Y":{"ha":886,"x_min":47,"x_max":835,"o":"m 476 368 l 476 0 l 407 0 l 407 368 q 227 670 317 519 q 47 972 138 821 l 118 972 q 272 715 194 842 q 425 458 350 589 q 433 438 429 447 q 442 419 438 429 l 443 419 q 451 438 447 429 q 458 458 454 447 q 612 715 536 588 q 764 972 688 842 l 835 972 l 476 368 z "},"~":{"ha":679,"x_min":178,"x_max":590,"o":"m 371 682 q 333 713 350 706 q 297 721 317 721 q 273 718 286 721 q 247 708 260 715 q 225 686 235 700 q 213 650 215 672 q 195 651 204 651 q 178 653 186 651 q 190 699 179 679 q 218 731 201 718 q 256 751 235 744 q 296 757 276 757 q 349 744 325 757 q 396 707 374 731 q 435 676 418 683 q 471 668 451 668 q 494 671 481 668 q 521 681 508 674 q 542 703 533 689 q 554 739 551 717 q 573 738 564 738 q 590 736 582 738 q 578 690 589 710 q 550 658 567 671 q 513 638 533 644 q 472 632 492 632 q 419 645 443 632 q 371 682 394 658 z "},"ñ":{"ha":726,"x_min":143,"x_max":599,"o":"m 143 521 l 196 521 l 196 472 q 196 429 196 449 q 197 386 196 410 q 286 492 225 451 q 425 532 347 532 q 546 489 501 532 q 593 376 590 446 l 593 0 l 535 0 l 535 361 q 502 439 532 406 q 414 475 472 472 q 333 460 372 475 q 265 421 294 446 q 219 361 236 396 q 201 285 201 326 l 201 0 l 143 0 l 143 521 m 379 669 q 342 701 358 693 q 306 708 325 708 q 281 706 294 708 q 256 695 268 703 q 233 674 243 688 q 221 638 224 660 q 203 639 213 639 q 186 640 194 639 q 199 686 188 667 q 226 719 210 706 q 264 738 243 732 q 304 744 285 744 q 358 731 333 744 q 404 694 382 718 q 443 663 426 671 q 479 656 460 656 q 503 658 489 656 q 529 669 517 661 q 551 690 542 676 q 563 726 560 704 q 581 725 572 725 q 599 724 590 725 q 586 678 597 697 q 558 645 575 658 q 521 626 542 632 q 481 619 500 619 q 427 633 451 619 q 379 669 403 646 z "},"F":{"ha":815,"x_min":118,"x_max":694,"o":"m 118 0 l 118 972 l 694 972 l 694 917 l 175 917 l 175 518 l 640 518 l 640 463 l 175 463 l 175 0 l 118 0 z "},"L":{"ha":824,"x_min":118,"x_max":714,"o":"m 118 0 l 118 972 l 175 972 l 175 56 l 714 56 l 714 0 l 118 0 z "},"C":{"ha":931,"x_min":86,"x_max":836,"o":"m 803 106 l 835 58 q 716 8 779 26 q 582 -11 653 -11 q 389 28 479 -11 q 231 134 299 67 q 125 292 164 201 q 86 485 86 382 q 125 678 86 588 q 231 837 164 769 q 389 944 299 904 q 582 983 479 983 q 716 965 653 983 q 836 914 779 947 q 820 890 828 903 q 804 867 813 878 q 699 912 756 896 q 582 928 643 928 q 412 892 492 928 q 272 797 332 857 q 178 656 213 736 q 144 483 144 575 q 178 313 144 393 q 272 174 213 233 q 410 79 332 114 q 579 44 489 44 q 697 60 642 44 q 803 106 753 76 z "},"Q":{"ha":1169,"x_min":86,"x_max":1111,"o":"m 144 483 q 178 313 144 393 q 272 174 213 233 q 410 79 332 114 q 579 44 489 44 q 751 79 671 44 q 892 174 832 114 q 988 313 953 233 q 1022 485 1022 393 q 988 657 1022 576 q 893 798 953 738 q 753 893 833 858 q 582 928 672 928 q 412 892 492 928 q 272 797 332 857 q 178 656 213 736 q 144 483 144 575 m 86 485 q 125 678 86 588 q 231 837 164 769 q 389 944 299 904 q 582 983 479 983 q 776 944 685 983 q 934 837 867 904 q 1041 678 1001 769 q 1081 485 1081 588 q 1061 349 1081 414 q 1007 228 1042 283 q 923 129 972 174 q 815 56 874 85 l 1111 56 l 1111 0 l 685 0 q 582 -11 632 -11 q 389 28 479 -11 q 231 134 299 67 q 125 292 164 201 q 86 485 86 382 z "},"T":{"ha":768,"x_min":0,"x_max":768,"o":"m 768 972 l 768 917 l 413 917 l 413 0 l 356 0 l 356 917 l 0 917 l 0 972 l 768 972 z "},"‹":{"ha":544,"x_min":163,"x_max":400,"o":"m 400 107 l 163 332 q 281 444 222 389 q 400 556 340 499 l 400 489 q 323 410 361 449 q 246 332 285 372 l 400 174 l 400 107 z "},">":{"ha":903,"x_min":160,"x_max":768,"o":"m 160 -21 l 160 56 q 399 193 281 125 q 638 331 518 261 q 399 468 518 400 q 160 606 281 536 l 160 682 q 464 506 313 594 q 768 331 615 418 q 464 155 615 243 q 160 -21 313 67 z "},"<":{"ha":944,"x_min":160,"x_max":768,"o":"m 768 56 l 768 -21 q 464 155 615 67 q 160 331 313 243 q 464 506 313 418 q 768 682 615 594 l 768 606 q 530 468 649 536 q 290 331 411 400 q 530 193 411 261 q 768 56 649 125 z "},"=":{"ha":983,"x_min":139,"x_max":842,"o":"m 842 244 l 842 188 l 139 188 l 139 244 l 842 244 m 842 514 l 842 457 l 139 457 l 139 514 l 842 514 z "},"@":{"ha":1375,"x_min":114,"x_max":1243,"o":"m 463 261 q 479 178 463 217 q 524 110 496 139 q 592 64 553 81 q 678 47 632 47 q 763 64 724 47 q 831 110 803 81 q 876 178 860 139 q 893 261 893 217 q 876 345 893 306 q 831 414 860 385 q 763 460 803 443 q 678 476 724 476 q 592 460 632 476 q 524 414 553 443 q 479 345 496 385 q 463 261 463 306 m 1243 261 q 1218 131 1239 182 q 1166 51 1197 81 q 1097 11 1135 22 q 1024 0 1060 0 l 899 0 l 899 56 q 899 88 899 72 q 900 119 900 104 q 870 72 890 96 q 822 31 850 49 q 756 1 793 13 q 678 -10 719 -10 q 571 12 621 -10 q 484 69 521 33 q 426 155 447 106 q 404 261 404 204 q 426 366 404 317 q 484 452 447 415 q 571 510 521 489 q 678 532 621 532 q 753 520 718 532 q 818 490 789 508 q 868 447 847 471 q 899 399 889 424 q 901 460 899 429 q 904 521 903 490 l 951 521 l 951 56 l 1029 56 q 1139 104 1096 56 q 1185 261 1182 153 q 1145 460 1185 367 q 1037 622 1106 553 q 876 730 968 690 q 679 769 783 769 q 481 730 574 769 q 320 622 389 690 q 212 460 251 553 q 172 261 172 367 q 212 64 172 156 q 320 -97 251 -28 q 481 -205 389 -165 q 679 -244 574 -244 q 838 -219 763 -244 q 978 -150 914 -194 q 996 -171 988 -161 q 1013 -192 1004 -181 q 857 -273 943 -244 q 679 -301 771 -301 q 460 -257 563 -301 q 280 -136 357 -212 q 158 43 203 -60 q 114 263 114 146 q 158 482 114 379 q 280 661 203 585 q 460 782 357 738 q 679 826 563 826 q 899 782 796 826 q 1078 661 1001 738 q 1199 482 1154 585 q 1243 261 1243 379 z "},"?":{"ha":628,"x_min":49,"x_max":586,"o":"m 100 803 q 74 813 88 808 q 49 821 61 817 q 83 892 61 857 q 138 954 106 926 q 215 999 171 982 q 314 1017 258 1017 q 421 995 371 1017 q 508 937 471 974 q 565 851 544 900 q 586 746 586 801 q 549 613 586 671 q 450 511 513 556 q 403 479 426 493 q 363 448 381 465 q 333 404 344 431 q 322 336 322 378 l 322 228 l 264 228 l 264 363 q 279 433 264 406 q 319 481 294 460 q 374 520 343 501 q 439 567 406 539 q 506 649 485 604 q 528 746 528 694 q 512 831 528 792 q 467 899 496 869 q 399 944 438 928 q 314 960 360 960 q 178 918 233 960 q 100 803 124 876 m 293 21 q 262 34 276 21 q 247 67 247 47 q 262 99 247 86 q 293 113 276 113 q 324 99 310 113 q 338 67 338 86 q 324 34 338 47 q 293 21 310 21 z "},"!":{"ha":279,"x_min":94,"x_max":183,"o":"m 139 31 q 108 44 122 31 q 94 76 94 57 q 108 109 94 96 q 139 122 122 122 q 169 109 156 122 q 183 76 183 96 q 169 44 183 57 q 139 31 156 31 l 139 31 m 110 1042 l 168 1042 l 168 231 l 110 231 l 110 1042 z "},":":{"ha":243,"x_min":72,"x_max":163,"o":"m 72 393 q 86 426 72 413 q 118 439 100 439 q 149 426 136 439 q 163 393 163 413 q 149 360 163 374 q 118 347 136 347 q 86 360 100 347 q 72 393 72 374 m 72 46 q 86 78 72 65 q 118 92 100 92 q 149 78 136 92 q 163 46 163 65 q 149 13 163 26 q 118 0 136 0 q 86 13 100 0 q 72 46 72 26 z "},";":{"ha":279,"x_min":3,"x_max":200,"o":"m 108 393 q 122 426 108 413 q 154 439 136 439 q 186 426 172 439 q 200 393 200 413 q 186 360 200 374 q 154 347 172 347 q 122 360 136 347 q 108 393 108 374 m 176 119 q 117 -24 146 47 q 57 -167 88 -94 l 3 -167 q 56 -24 31 -94 q 110 119 82 47 l 176 119 z "},"\"":{"ha":431,"x_min":88,"x_max":333,"o":"m 272 656 l 272 1000 l 333 1000 q 331 828 332 913 q 328 656 329 743 l 272 656 m 88 656 l 88 1000 l 149 1000 q 146 828 147 913 q 143 656 144 743 l 88 656 z "},"#":{"ha":793,"x_min":38,"x_max":708,"o":"m 275 546 q 264 447 269 496 q 253 349 258 397 l 450 349 q 461 447 456 397 q 472 546 467 496 l 275 546 m 408 0 l 442 292 l 244 292 l 211 0 l 153 0 l 186 292 l 38 292 q 42 320 40 307 q 44 349 43 333 l 194 349 q 206 447 200 397 q 217 546 211 496 l 69 546 q 73 574 72 560 q 75 601 74 588 l 224 601 q 242 747 233 675 q 260 893 250 819 l 318 893 q 300 747 308 819 q 282 601 292 675 l 479 601 q 497 747 489 675 q 515 893 506 819 l 574 893 q 556 747 564 819 q 538 601 547 675 l 708 601 q 705 574 706 588 q 703 546 704 560 l 531 546 q 519 447 525 496 q 508 349 514 397 l 676 349 q 674 320 675 333 q 671 292 672 307 l 500 292 l 467 0 l 408 0 z "},"%":{"ha":1008,"x_min":140,"x_max":888,"o":"m 621 156 q 651 81 621 111 q 725 51 681 51 q 799 81 769 51 q 829 156 829 111 q 799 229 829 199 q 725 260 769 260 q 651 229 681 260 q 621 156 621 199 m 725 -6 q 662 7 692 -6 q 610 41 632 19 q 576 92 589 63 q 563 156 563 122 q 576 218 563 189 q 610 269 589 247 q 662 303 632 290 q 725 315 692 315 q 788 303 758 315 q 839 269 817 290 q 874 218 861 247 q 888 156 888 189 q 874 92 888 122 q 839 41 861 63 q 788 7 817 19 q 725 -6 758 -6 m 199 539 q 228 466 199 496 q 303 436 258 436 q 377 466 347 436 q 407 539 407 496 q 377 613 407 583 q 303 643 347 643 q 228 613 258 643 q 199 539 199 583 m 303 379 q 240 392 269 379 q 188 426 210 404 q 153 477 167 447 q 140 540 140 507 q 153 603 140 574 q 188 653 167 632 q 240 688 210 675 q 303 700 269 700 q 365 688 336 700 q 417 653 394 675 q 452 603 439 632 q 465 540 465 574 q 452 477 465 507 q 417 426 439 447 q 365 392 394 404 q 303 379 336 379 m 269 0 q 476 347 374 175 q 683 694 579 519 l 747 694 q 540 347 643 519 q 333 0 438 175 l 269 0 z "},"’":{"ha":228,"x_min":68,"x_max":171,"o":"m 96 792 l 68 819 q 110 888 97 847 q 114 978 124 929 q 137 983 125 981 q 160 988 149 985 q 153 879 171 931 q 96 792 136 828 z "},"(":{"ha":564,"x_min":186,"x_max":458,"o":"m 186 406 q 206 604 186 510 q 257 779 225 699 q 330 926 289 860 q 415 1038 371 992 q 437 1022 426 1029 q 458 1006 447 1014 q 380 897 418 960 q 311 758 342 835 q 263 593 281 682 q 244 406 244 504 q 263 218 244 307 q 311 53 281 129 q 380 -86 342 -24 q 458 -194 418 -149 q 437 -210 447 -203 q 415 -226 426 -218 q 330 -115 371 -181 q 257 32 289 -49 q 206 207 225 113 q 186 406 186 301 z "},")":{"ha":556,"x_min":133,"x_max":406,"o":"m 406 403 q 386 204 406 299 q 335 29 367 110 q 261 -117 303 -51 q 176 -229 219 -183 q 155 -213 165 -221 q 133 -197 144 -206 q 212 -89 174 -151 q 281 50 250 -26 q 329 215 311 126 q 347 403 347 304 q 329 590 347 501 q 281 756 311 679 q 212 894 250 832 q 133 1003 174 957 q 155 1019 144 1011 q 176 1035 165 1026 q 261 923 219 989 q 335 776 303 857 q 386 601 367 696 q 406 403 406 507 z "},"*":{"ha":465,"x_min":46,"x_max":421,"o":"m 290 799 q 355 763 322 781 q 419 725 388 744 q 403 699 411 713 q 388 672 396 686 q 324 710 356 692 q 261 747 293 728 q 260 675 260 711 q 258 603 260 639 l 203 603 l 203 747 q 140 712 171 729 q 78 675 110 694 q 62 702 69 689 q 46 729 54 715 q 110 765 78 747 q 174 800 142 782 q 110 838 142 819 q 47 875 79 856 q 75 924 58 899 q 139 886 107 904 q 203 849 171 868 l 203 1000 l 264 1000 q 263 925 264 963 q 263 849 263 888 q 328 886 294 868 q 393 922 361 904 q 407 899 400 911 q 421 874 414 886 q 356 836 388 854 q 290 799 324 818 z "},"+":{"ha":754,"x_min":119,"x_max":619,"o":"m 340 71 l 340 293 l 119 293 l 119 350 l 340 350 l 340 571 l 399 571 l 399 350 l 619 350 l 619 293 l 399 293 l 399 71 l 340 71 z "},"|":{"ha":333,"x_min":133,"x_max":192,"o":"m 133 -322 l 133 972 l 192 972 l 192 -322 l 133 -322 z "},"{":{"ha":404,"x_min":42,"x_max":354,"o":"m 42 382 l 42 446 q 97 466 75 447 q 131 513 118 485 q 147 573 143 540 q 151 633 151 606 l 151 872 q 163 969 151 936 q 193 1017 174 1003 q 237 1034 213 1032 q 289 1036 261 1036 l 354 1036 l 354 979 l 282 979 q 224 947 239 979 q 210 829 210 914 l 210 632 q 201 538 210 575 q 181 477 193 501 q 152 439 168 453 q 119 415 136 425 q 152 391 136 406 q 181 351 168 376 q 201 290 193 326 q 210 197 210 253 l 210 1 q 224 -117 210 -85 q 282 -150 239 -150 l 354 -150 l 354 -206 l 289 -206 q 234 -203 260 -206 q 190 -184 208 -201 q 162 -127 172 -167 q 151 -12 151 -87 l 151 194 q 147 255 151 222 q 131 315 143 288 q 97 362 118 343 q 42 382 75 381 z "},"}":{"ha":444,"x_min":90,"x_max":403,"o":"m 403 446 l 403 382 q 341 355 363 379 q 308 297 319 331 q 295 226 297 263 q 293 164 293 189 l 293 -42 q 282 -140 293 -107 q 251 -188 271 -174 q 207 -204 232 -203 q 156 -206 182 -206 l 90 -206 l 90 -150 l 163 -150 q 220 -117 206 -150 q 235 1 235 -85 l 235 229 q 244 306 235 274 q 267 359 253 338 q 297 394 281 381 q 325 415 313 407 q 292 439 308 425 q 264 477 276 453 q 243 538 251 501 q 235 632 235 575 l 235 829 q 220 947 235 914 q 163 979 206 979 l 90 979 l 90 1036 l 156 1036 q 207 1035 182 1036 q 251 1019 232 1033 q 281 970 269 1004 q 293 872 293 936 l 293 664 q 295 602 293 639 q 308 531 297 565 q 341 472 319 497 q 403 446 363 447 z "},"-":{"ha":417,"x_min":74,"x_max":329,"o":"m 74 235 l 74 292 l 329 292 l 329 235 l 74 235 z "},"/":{"ha":479,"x_min":24,"x_max":468,"o":"m 24 -26 q 217 498 121 238 q 410 1022 313 758 l 468 1022 q 275 498 371 758 q 82 -26 179 238 l 24 -26 z "},"\\":{"ha":481,"x_min":14,"x_max":464,"o":"m 78 1022 q 271 498 175 758 q 464 -26 367 238 l 400 -26 q 207 498 303 238 q 14 1022 111 758 l 78 1022 z "},"G":{"ha":947,"x_min":86,"x_max":836,"o":"m 576 361 l 576 417 l 760 417 q 818 401 801 417 q 835 346 835 386 l 835 58 q 716 8 779 26 q 582 -11 653 -11 q 389 28 479 -11 q 231 134 299 67 q 125 292 164 201 q 86 485 86 382 q 125 678 86 588 q 231 837 164 769 q 389 944 299 904 q 582 983 479 983 q 716 965 653 983 q 836 914 779 947 q 820 890 828 903 q 804 867 813 878 q 699 912 756 896 q 582 928 643 928 q 412 892 492 928 q 272 797 332 857 q 178 656 213 736 q 144 483 144 575 q 178 313 144 393 q 272 174 213 233 q 410 79 332 114 q 579 44 489 44 q 776 92 685 44 l 776 267 l 776 325 q 769 351 776 342 q 739 361 763 361 l 576 361 z "},"V":{"ha":1003,"x_min":75,"x_max":936,"o":"m 878 972 l 936 972 q 721 464 828 717 q 506 -44 614 211 q 290 464 397 211 q 75 972 183 717 l 133 972 q 313 548 224 758 q 493 124 403 338 q 499 104 496 114 q 506 85 503 94 q 512 104 508 94 q 518 124 515 114 q 698 548 608 338 q 878 972 788 758 z "},"S":{"ha":767,"x_min":92,"x_max":672,"o":"m 600 890 q 583 868 590 879 q 567 846 575 857 q 536 870 554 857 q 494 895 518 883 q 440 915 469 907 q 375 922 410 922 q 290 906 326 922 q 230 863 254 890 q 194 801 206 836 q 182 728 182 765 q 195 659 182 688 q 231 611 208 631 q 286 577 254 592 q 356 550 318 563 q 455 516 400 535 q 558 465 510 497 q 640 383 607 432 q 672 258 672 333 q 649 147 672 197 q 587 62 626 97 q 494 8 547 26 q 381 -11 440 -11 q 280 3 326 -11 q 197 38 233 17 q 134 82 161 58 q 92 124 107 106 l 131 163 q 175 122 150 143 q 230 84 200 101 q 296 56 260 67 q 374 44 332 44 q 464 59 421 44 q 540 101 507 74 q 594 167 574 128 q 614 256 614 206 q 586 358 614 318 q 517 425 558 399 q 428 468 476 451 q 338 499 379 485 q 276 521 311 507 q 208 560 240 535 q 151 623 175 585 q 125 718 126 661 q 135 810 122 764 q 179 894 149 857 q 258 954 210 931 q 376 978 307 978 q 484 960 429 978 q 600 890 539 942 z "},"Z":{"ha":972,"x_min":113,"x_max":889,"o":"m 236 972 l 849 972 l 849 917 q 517 487 682 701 q 186 56 353 272 l 889 56 l 889 0 l 113 0 l 113 56 q 444 487 279 272 q 775 917 608 701 l 226 917 q 160 933 183 917 q 136 990 136 950 l 136 1021 l 194 1021 l 194 1004 q 203 980 194 988 q 236 972 213 972 z "},"W":{"ha":1539,"x_min":75,"x_max":1453,"o":"m 1394 972 l 1453 972 q 1238 464 1344 717 q 1022 -44 1131 211 l 776 535 l 764 572 q 640 263 708 418 q 506 -44 571 107 q 290 464 397 211 q 75 972 183 717 l 133 972 q 313 547 224 758 q 493 124 401 336 q 499 104 496 114 q 506 85 503 94 q 615 361 553 224 q 735 635 676 499 q 663 804 699 721 q 592 972 628 888 l 651 972 q 829 547 740 758 q 1010 124 918 336 q 1016 104 1013 114 q 1022 85 1019 94 q 1028 104 1025 94 q 1035 124 1032 114 q 1215 548 1126 338 q 1394 972 1304 758 z "},"X":{"ha":972,"x_min":129,"x_max":846,"o":"m 450 499 q 297 735 374 617 q 143 972 219 854 l 213 972 q 344 769 279 871 q 476 567 410 668 q 484 554 481 560 q 490 542 488 549 q 498 554 494 549 q 504 567 501 560 q 635 769 571 668 q 765 972 700 871 l 835 972 q 681 732 757 851 q 526 492 604 613 q 686 246 606 368 q 846 0 767 124 l 775 0 l 529 376 q 508 413 518 393 q 485 449 497 432 q 478 435 482 442 q 471 422 474 429 q 335 212 403 317 q 200 0 268 107 l 129 0 q 290 249 210 126 q 450 499 369 372 z "},"Æ":{"ha":1100,"x_min":83,"x_max":978,"o":"m 503 465 l 503 860 q 424 662 467 760 q 339 465 381 564 l 503 465 m 83 0 q 289 486 188 244 q 494 972 390 728 l 958 972 l 958 917 l 560 917 l 560 518 l 904 518 l 904 463 l 560 463 l 560 56 l 978 56 l 978 0 l 503 0 l 503 410 l 315 410 q 229 205 272 307 q 142 0 186 103 l 83 0 z "},"Ñ":{"ha":1129,"x_min":139,"x_max":988,"o":"m 988 972 l 988 -44 q 603 399 793 179 q 219 843 413 619 q 206 861 213 853 q 193 879 200 869 q 195 857 194 868 q 197 835 196 846 l 197 0 l 139 0 l 139 1017 q 524 569 333 790 q 907 122 714 347 q 920 104 914 113 q 933 86 926 96 q 931 108 932 97 q 929 131 931 119 l 929 972 l 988 972 m 558 1089 q 521 1120 538 1113 q 485 1128 504 1128 q 460 1125 474 1128 q 435 1115 447 1122 q 413 1093 422 1107 q 400 1057 403 1079 q 383 1058 392 1058 q 365 1060 374 1058 q 378 1106 367 1086 q 406 1138 389 1125 q 443 1158 422 1151 q 483 1164 464 1164 q 537 1151 513 1164 q 583 1114 561 1138 q 622 1083 606 1090 q 658 1075 639 1075 q 682 1078 668 1075 q 708 1088 696 1081 q 730 1110 721 1096 q 742 1146 739 1124 q 760 1144 751 1144 q 778 1143 769 1144 q 765 1097 776 1117 q 738 1065 754 1078 q 700 1045 721 1051 q 660 1039 679 1039 q 606 1052 631 1039 q 558 1089 582 1065 z "},"Å":{"ha":1028,"x_min":83,"x_max":944,"o":"m 457 1160 q 474 1119 457 1136 q 515 1101 492 1101 q 557 1119 539 1101 q 575 1160 575 1136 q 557 1201 575 1183 q 515 1219 539 1219 q 474 1201 492 1219 q 457 1160 457 1183 m 414 1161 q 444 1232 414 1203 q 515 1261 474 1261 q 587 1232 557 1261 q 617 1161 617 1203 q 587 1089 617 1118 q 515 1060 557 1060 q 444 1089 474 1060 q 414 1161 414 1118 m 526 849 q 520 868 524 858 q 514 888 517 878 q 433 679 478 782 q 343 472 388 576 l 686 472 q 606 661 646 568 q 526 849 567 754 m 944 0 l 886 0 q 798 208 842 104 q 710 417 754 313 l 319 417 q 231 208 275 313 q 143 0 188 104 l 83 0 q 299 508 192 256 q 514 1017 406 761 q 729 508 622 761 q 944 0 836 256 z "},"Á":{"ha":1028,"x_min":83,"x_max":944,"o":"m 526 849 q 520 868 524 858 q 514 888 517 878 q 433 679 478 782 q 343 472 388 576 l 686 472 q 606 661 646 568 q 526 849 567 754 m 944 0 l 886 0 q 798 208 842 104 q 710 417 754 313 l 319 417 q 231 208 275 313 q 143 0 188 104 l 83 0 q 299 508 192 256 q 514 1017 406 761 q 729 508 622 761 q 944 0 836 256 m 486 1042 q 549 1134 518 1088 q 611 1226 579 1181 l 671 1226 q 601 1134 636 1181 q 532 1042 567 1088 l 486 1042 z "},"É":{"ha":835,"x_min":118,"x_max":714,"o":"m 118 0 l 118 972 l 694 972 l 694 917 l 175 917 l 175 518 l 640 518 l 640 463 l 175 463 l 175 56 l 714 56 l 714 0 l 118 0 m 376 1042 q 439 1134 408 1088 q 501 1226 469 1181 l 561 1226 q 492 1134 526 1181 q 422 1042 457 1088 l 376 1042 z "},"Í":{"ha":328,"x_min":144,"x_max":332,"o":"m 144 972 l 201 972 l 201 0 l 144 0 l 144 972 m 147 1042 q 210 1134 179 1088 q 272 1226 240 1181 l 332 1226 q 263 1134 297 1181 q 193 1042 228 1088 l 147 1042 z "},"Ó":{"ha":1167,"x_min":86,"x_max":1081,"o":"m 86 485 q 125 678 86 588 q 231 837 164 769 q 389 944 299 904 q 582 983 479 983 q 776 944 685 983 q 934 837 867 904 q 1041 678 1001 769 q 1081 485 1081 588 q 1041 292 1081 382 q 934 134 1001 201 q 776 28 867 67 q 582 -11 685 -11 q 389 28 479 -11 q 231 134 299 67 q 125 292 164 201 q 86 485 86 382 m 144 483 q 178 312 144 392 q 272 173 213 232 q 411 79 332 114 q 581 44 490 44 q 751 79 671 44 q 892 174 832 114 q 988 313 953 233 q 1022 485 1022 393 q 988 657 1022 576 q 893 798 953 738 q 753 893 833 858 q 582 928 672 928 q 412 892 492 928 q 272 797 332 857 q 178 656 213 736 q 144 483 144 575 m 556 1042 q 618 1134 588 1088 q 681 1226 649 1181 l 740 1226 q 671 1134 706 1181 q 601 1042 636 1088 l 556 1042 z "},"Ú":{"ha":906,"x_min":129,"x_max":785,"o":"m 456 -11 q 325 10 385 -11 q 222 72 265 31 q 153 174 178 113 q 129 314 129 235 l 129 972 l 186 972 l 186 318 q 206 201 186 251 q 262 115 226 150 q 347 63 297 81 q 456 44 397 44 q 563 63 514 44 q 649 115 613 81 q 706 201 686 150 q 726 318 726 251 l 726 972 l 785 972 l 785 314 q 760 174 785 235 q 690 72 735 113 q 585 10 646 31 q 456 -11 525 -11 m 417 1042 q 479 1134 449 1088 q 542 1226 510 1181 l 601 1226 q 532 1134 567 1181 q 463 1042 497 1088 l 417 1042 z "},"Ä":{"ha":1028,"x_min":83,"x_max":944,"o":"m 526 849 q 520 868 524 858 q 514 888 517 878 q 433 679 478 782 q 343 472 388 576 l 686 472 q 606 661 646 568 q 526 849 567 754 m 944 0 l 886 0 q 798 208 842 104 q 710 417 754 313 l 319 417 q 231 208 275 313 q 143 0 188 104 l 83 0 q 299 508 192 256 q 514 1017 406 761 q 729 508 622 761 q 944 0 836 256 m 585 1108 q 599 1141 585 1128 q 631 1154 613 1154 q 662 1141 649 1154 q 675 1108 675 1128 q 662 1076 675 1089 q 631 1063 649 1063 q 599 1076 613 1063 q 585 1108 585 1089 m 356 1108 q 369 1141 356 1128 q 401 1154 383 1154 q 432 1141 418 1154 q 446 1108 446 1128 q 432 1076 446 1089 q 401 1063 418 1063 q 369 1076 383 1063 q 356 1108 356 1089 z "},"Ë":{"ha":835,"x_min":118,"x_max":714,"o":"m 118 0 l 118 972 l 694 972 l 694 917 l 175 917 l 175 518 l 640 518 l 640 463 l 175 463 l 175 56 l 714 56 l 714 0 l 118 0 m 478 1108 q 492 1141 478 1128 q 524 1154 506 1154 q 555 1141 542 1154 q 568 1108 568 1128 q 555 1076 568 1089 q 524 1063 542 1063 q 492 1076 506 1063 q 478 1108 478 1089 m 249 1108 q 263 1141 249 1128 q 294 1154 276 1154 q 325 1141 311 1154 q 339 1108 339 1128 q 325 1076 339 1089 q 294 1063 311 1063 q 263 1076 276 1063 q 249 1108 249 1089 z "},"Ï":{"ha":328,"x_min":13,"x_max":332,"o":"m 144 972 l 201 972 l 201 0 l 144 0 l 144 972 m 242 1108 q 256 1141 242 1128 q 288 1154 269 1154 q 319 1141 306 1154 q 332 1108 332 1128 q 319 1076 332 1089 q 288 1063 306 1063 q 256 1076 269 1063 q 242 1108 242 1089 m 13 1108 q 26 1141 13 1128 q 58 1154 40 1154 q 89 1141 75 1154 q 103 1108 103 1128 q 89 1076 103 1089 q 58 1063 75 1063 q 26 1076 40 1063 q 13 1108 13 1089 z "},"Ö":{"ha":1165,"x_min":86,"x_max":1081,"o":"m 86 485 q 125 678 86 588 q 231 837 164 769 q 389 944 299 904 q 582 983 479 983 q 776 944 685 983 q 934 837 867 904 q 1041 678 1001 769 q 1081 485 1081 588 q 1041 292 1081 382 q 934 134 1001 201 q 776 28 867 67 q 582 -11 685 -11 q 389 28 479 -11 q 231 134 299 67 q 125 292 164 201 q 86 485 86 382 m 144 483 q 178 312 144 392 q 272 173 213 232 q 411 79 332 114 q 581 44 490 44 q 751 79 671 44 q 892 174 832 114 q 988 313 953 233 q 1022 485 1022 393 q 988 657 1022 576 q 893 798 953 738 q 753 893 833 858 q 582 928 672 928 q 412 892 492 928 q 272 797 332 857 q 178 656 213 736 q 144 483 144 575 m 651 1108 q 665 1141 651 1128 q 697 1154 679 1154 q 728 1141 715 1154 q 742 1108 742 1128 q 728 1076 742 1089 q 697 1063 715 1063 q 665 1076 679 1063 q 651 1108 651 1089 m 422 1108 q 436 1141 422 1128 q 468 1154 450 1154 q 499 1141 485 1154 q 513 1108 513 1128 q 499 1076 513 1089 q 468 1063 485 1063 q 436 1076 450 1063 q 422 1108 422 1089 z "},"Ü":{"ha":906,"x_min":129,"x_max":785,"o":"m 456 -11 q 325 10 385 -11 q 222 72 265 31 q 153 174 178 113 q 129 314 129 235 l 129 972 l 186 972 l 186 318 q 206 201 186 251 q 262 115 226 150 q 347 63 297 81 q 456 44 397 44 q 563 63 514 44 q 649 115 613 81 q 706 201 686 150 q 726 318 726 251 l 726 972 l 785 972 l 785 314 q 760 174 785 235 q 690 72 735 113 q 585 10 646 31 q 456 -11 525 -11 m 528 1108 q 542 1141 528 1128 q 574 1154 556 1154 q 605 1141 592 1154 q 618 1108 618 1128 q 605 1076 618 1089 q 574 1063 592 1063 q 542 1076 556 1063 q 528 1108 528 1089 m 299 1108 q 313 1141 299 1128 q 344 1154 326 1154 q 375 1141 361 1154 q 389 1108 389 1128 q 375 1076 389 1089 q 344 1063 361 1063 q 313 1076 326 1063 q 299 1108 299 1089 z "},"À":{"ha":1028,"x_min":83,"x_max":944,"o":"m 526 849 q 520 868 524 858 q 514 888 517 878 q 433 679 478 782 q 343 472 388 576 l 686 472 q 606 661 646 568 q 526 849 567 754 m 944 0 l 886 0 q 798 208 842 104 q 710 417 754 313 l 319 417 q 231 208 275 313 q 143 0 188 104 l 83 0 q 299 508 192 256 q 514 1017 406 761 q 729 508 622 761 q 944 0 836 256 m 414 1226 q 476 1134 446 1181 q 539 1042 507 1088 l 493 1042 q 424 1134 458 1088 q 354 1226 389 1181 l 414 1226 z "},"È":{"ha":835,"x_min":118,"x_max":714,"o":"m 118 0 l 118 972 l 694 972 l 694 917 l 175 917 l 175 518 l 640 518 l 640 463 l 175 463 l 175 56 l 714 56 l 714 0 l 118 0 m 306 1226 q 368 1134 338 1181 q 431 1042 399 1088 l 385 1042 q 315 1134 350 1088 q 246 1226 281 1181 l 306 1226 z "},"Ì":{"ha":328,"x_min":10,"x_max":201,"o":"m 144 972 l 201 972 l 201 0 l 144 0 l 144 972 m 69 1226 q 132 1134 101 1181 q 194 1042 163 1088 l 149 1042 q 79 1134 114 1088 q 10 1226 44 1181 l 69 1226 z "},"Ò":{"ha":1165,"x_min":86,"x_max":1081,"o":"m 86 485 q 125 678 86 588 q 231 837 164 769 q 389 944 299 904 q 582 983 479 983 q 776 944 685 983 q 934 837 867 904 q 1041 678 1001 769 q 1081 485 1081 588 q 1041 292 1081 382 q 934 134 1001 201 q 776 28 867 67 q 582 -11 685 -11 q 389 28 479 -11 q 231 134 299 67 q 125 292 164 201 q 86 485 86 382 m 144 483 q 178 312 144 392 q 272 173 213 232 q 411 79 332 114 q 581 44 490 44 q 751 79 671 44 q 892 174 832 114 q 988 313 953 233 q 1022 485 1022 393 q 988 657 1022 576 q 893 798 953 738 q 753 893 833 858 q 582 928 672 928 q 412 892 492 928 q 272 797 332 857 q 178 656 213 736 q 144 483 144 575 m 478 1226 q 540 1134 510 1181 q 603 1042 571 1088 l 557 1042 q 488 1134 522 1088 q 418 1226 453 1181 l 478 1226 z "},"Ù":{"ha":906,"x_min":129,"x_max":785,"o":"m 456 -11 q 325 10 385 -11 q 222 72 265 31 q 153 174 178 113 q 129 314 129 235 l 129 972 l 186 972 l 186 318 q 206 201 186 251 q 262 115 226 150 q 347 63 297 81 q 456 44 397 44 q 563 63 514 44 q 649 115 613 81 q 706 201 686 150 q 726 318 726 251 l 726 972 l 785 972 l 785 314 q 760 174 785 235 q 690 72 735 113 q 585 10 646 31 q 456 -11 525 -11 m 357 1226 q 419 1134 389 1181 q 482 1042 450 1088 l 436 1042 q 367 1134 401 1088 q 297 1226 332 1181 l 357 1226 z "},"Ý":{"ha":886,"x_min":47,"x_max":835,"o":"m 476 368 l 476 0 l 407 0 l 407 368 q 227 670 317 519 q 47 972 138 821 l 118 972 q 272 715 194 842 q 425 458 350 589 q 433 438 429 447 q 442 419 438 429 l 443 419 q 451 438 447 429 q 458 458 454 447 q 612 715 536 588 q 764 972 688 842 l 835 972 l 476 368 m 408 1042 q 471 1134 440 1088 q 533 1226 501 1181 l 593 1226 q 524 1134 558 1181 q 454 1042 489 1088 l 408 1042 z "},"¡":{"ha":278,"x_min":94,"x_max":183,"o":"m 139 719 q 108 706 122 719 q 94 674 94 693 q 108 641 94 654 q 139 628 122 628 q 169 641 156 628 q 183 674 183 654 q 169 706 183 693 q 139 719 156 719 l 139 719 m 110 -292 l 168 -292 l 168 519 l 110 519 l 110 -292 z "},"Ø":{"ha":1167,"x_min":86,"x_max":1081,"o":"m 144 483 q 178 311 144 392 q 274 171 213 231 q 557 507 417 340 q 840 842 697 674 q 719 905 785 882 q 582 928 654 928 q 412 892 492 928 q 272 797 332 857 q 178 656 213 736 q 144 483 144 575 m 579 44 q 751 79 671 44 q 892 174 832 114 q 988 313 953 233 q 1022 485 1022 393 q 984 663 1022 581 q 879 807 946 746 q 597 472 736 639 q 314 136 457 304 q 437 68 369 92 q 579 44 504 44 m 86 485 q 125 678 86 588 q 231 837 164 769 q 389 944 299 904 q 582 983 479 983 q 740 958 665 983 q 878 885 815 932 l 965 989 q 985 972 975 981 q 1004 954 994 964 q 961 903 982 928 q 918 851 940 878 q 1037 688 993 783 q 1081 485 1081 593 q 1041 292 1081 382 q 934 134 1001 201 q 776 28 867 67 q 582 -11 685 -11 q 417 17 494 -11 q 278 93 340 44 q 231 38 254 65 q 185 -17 208 11 q 165 1 175 -7 q 146 19 156 10 l 238 128 q 126 288 167 196 q 86 485 86 379 z "},"¿":{"ha":593,"x_min":49,"x_max":586,"o":"m 535 -54 q 560 -64 547 -60 q 586 -72 574 -68 q 551 -143 574 -108 q 497 -205 529 -178 q 420 -251 464 -233 q 321 -268 376 -268 q 214 -246 264 -268 q 127 -188 164 -225 q 69 -102 90 -151 q 49 3 49 -53 q 85 135 49 78 q 185 238 122 193 q 231 269 208 256 q 272 301 254 283 q 301 344 290 318 q 313 413 313 371 l 313 521 l 371 521 l 371 386 q 356 316 371 343 q 316 268 340 289 q 260 229 292 247 q 196 182 229 210 q 129 99 150 144 q 107 3 107 54 q 123 -82 107 -43 q 168 -150 139 -121 q 236 -195 197 -179 q 321 -211 275 -211 q 456 -169 401 -211 q 535 -54 511 -128 m 342 728 q 373 715 358 728 q 388 682 388 701 q 373 649 388 663 q 342 636 358 636 q 311 649 325 636 q 297 682 297 663 q 311 715 297 701 q 342 728 325 728 z "},"Ã":{"ha":1028,"x_min":83,"x_max":944,"o":"m 526 849 q 520 868 524 858 q 514 888 517 878 q 433 679 478 782 q 343 472 388 576 l 686 472 q 606 661 646 568 q 526 849 567 754 m 944 0 l 886 0 q 798 208 842 104 q 710 417 754 313 l 319 417 q 231 208 275 313 q 143 0 188 104 l 83 0 q 299 508 192 256 q 514 1017 406 761 q 729 508 622 761 q 944 0 836 256 m 497 1090 q 460 1122 476 1114 q 424 1129 443 1129 q 399 1126 413 1129 q 374 1116 386 1124 q 351 1094 361 1108 q 339 1058 342 1081 q 322 1060 331 1060 q 304 1061 313 1060 q 317 1107 306 1088 q 344 1140 328 1126 q 382 1159 361 1153 q 422 1165 403 1165 q 476 1152 451 1165 q 522 1115 500 1139 q 561 1084 544 1092 q 597 1076 578 1076 q 621 1079 607 1076 q 647 1090 635 1082 q 669 1111 660 1097 q 681 1147 678 1125 q 699 1146 690 1146 q 717 1144 708 1146 q 704 1099 715 1118 q 676 1066 693 1079 q 639 1047 660 1053 q 599 1040 618 1040 q 545 1053 569 1040 q 497 1090 521 1067 z "},"Õ":{"ha":1165,"x_min":86,"x_max":1081,"o":"m 86 485 q 125 678 86 588 q 231 837 164 769 q 389 944 299 904 q 582 983 479 983 q 776 944 685 983 q 934 837 867 904 q 1041 678 1001 769 q 1081 485 1081 588 q 1041 292 1081 382 q 934 134 1001 201 q 776 28 867 67 q 582 -11 685 -11 q 389 28 479 -11 q 231 134 299 67 q 125 292 164 201 q 86 485 86 382 m 144 483 q 178 312 144 392 q 272 173 213 232 q 411 79 332 114 q 581 44 490 44 q 751 79 671 44 q 892 174 832 114 q 988 313 953 233 q 1022 485 1022 393 q 988 657 1022 576 q 893 798 953 738 q 753 893 833 858 q 582 928 672 928 q 412 892 492 928 q 272 797 332 857 q 178 656 213 736 q 144 483 144 575 m 567 1136 q 529 1167 546 1160 q 493 1175 513 1175 q 469 1172 482 1175 q 443 1162 456 1169 q 421 1140 431 1154 q 408 1104 411 1126 q 391 1106 400 1106 q 374 1107 382 1106 q 386 1153 375 1133 q 414 1185 397 1172 q 451 1205 431 1199 q 492 1211 472 1211 q 545 1198 521 1211 q 592 1161 569 1185 q 631 1130 614 1138 q 667 1122 647 1122 q 690 1125 676 1122 q 717 1135 704 1128 q 738 1157 729 1143 q 750 1193 747 1171 q 769 1192 760 1192 q 786 1190 778 1192 q 774 1144 785 1164 q 746 1112 763 1125 q 708 1092 729 1099 q 668 1086 688 1086 q 615 1099 639 1086 q 567 1136 590 1113 z "},"â":{"ha":765,"x_min":68,"x_max":615,"o":"m 126 261 q 143 178 126 217 q 188 110 160 139 q 256 64 217 81 q 342 47 296 47 q 426 64 388 47 q 494 110 465 81 q 540 178 524 139 q 557 261 557 217 q 540 345 557 306 q 494 414 524 385 q 426 460 465 443 q 342 476 388 476 q 256 460 296 476 q 188 414 217 443 q 143 345 160 385 q 126 261 126 306 m 68 261 q 90 366 68 317 q 148 452 111 415 q 235 510 185 489 q 342 532 285 532 q 418 520 382 532 q 483 490 454 508 q 533 447 513 471 q 563 399 553 422 q 565 460 563 429 q 568 521 567 490 l 615 521 l 615 0 l 563 0 l 563 63 q 563 92 563 78 q 564 121 564 106 q 535 74 556 97 q 487 31 515 50 q 422 1 458 13 q 342 -10 385 -10 q 235 12 285 -10 q 148 69 185 33 q 90 155 111 106 q 68 261 68 204 m 363 917 q 446 791 404 854 q 529 665 488 728 l 483 665 q 423 749 453 707 q 363 833 393 792 q 302 749 332 792 q 242 665 272 707 l 196 665 q 279 791 238 728 q 363 917 321 854 z "},"ê":{"ha":626,"x_min":50,"x_max":561,"o":"m 322 476 q 243 462 281 476 q 178 421 206 447 q 133 360 150 394 q 111 285 115 325 q 110 252 110 268 q 114 221 111 236 q 300 295 207 258 q 488 369 393 332 q 419 447 464 417 q 322 476 375 476 m 561 338 q 346 252 453 294 q 131 167 239 210 q 206 81 154 114 q 322 47 257 47 q 403 63 365 47 q 468 106 440 78 q 486 84 478 94 q 504 63 494 74 q 422 10 468 29 q 322 -10 376 -10 q 216 12 265 -10 q 130 69 167 33 q 72 155 93 106 q 50 261 50 204 q 72 367 50 317 q 130 453 93 417 q 216 510 167 489 q 322 532 265 532 q 401 517 364 532 q 470 477 439 503 q 525 416 501 451 q 561 338 549 381 m 322 917 q 406 791 364 854 q 489 665 447 728 l 443 665 q 383 749 413 707 q 322 833 353 792 q 262 749 292 792 q 201 665 232 707 l 156 665 q 239 791 197 728 q 322 917 281 854 z "},"î":{"ha":332,"x_min":-6,"x_max":328,"o":"m 190 0 l 132 0 l 132 521 l 190 521 l 190 0 m 161 917 q 244 791 203 854 q 328 665 286 728 l 282 665 q 222 749 251 707 q 161 833 192 792 q 101 749 131 792 q 40 665 71 707 l -6 665 q 78 791 36 728 q 161 917 119 854 z "},"ô":{"ha":651,"x_min":50,"x_max":597,"o":"m 50 261 q 72 367 50 317 q 130 453 93 417 q 216 512 167 490 q 322 533 265 533 q 429 512 379 533 q 517 453 479 490 q 576 367 554 417 q 597 261 597 317 q 576 155 597 204 q 517 69 554 106 q 429 12 479 33 q 322 -10 379 -10 q 216 12 265 -10 q 130 69 167 33 q 72 155 93 106 q 50 261 50 204 m 108 261 q 125 178 108 217 q 171 110 142 139 q 239 64 200 81 q 322 47 278 47 q 406 64 367 47 q 474 110 444 81 q 520 178 503 139 q 538 261 538 217 q 520 344 538 306 q 474 413 503 383 q 406 459 444 442 q 322 476 367 476 q 239 459 278 476 q 171 413 200 442 q 125 344 142 383 q 108 261 108 306 m 322 917 q 406 791 364 854 q 489 665 447 728 l 443 665 q 383 749 413 707 q 322 833 353 792 q 262 749 292 792 q 201 665 232 707 l 156 665 q 239 791 197 728 q 322 917 281 854 z "},"û":{"ha":735,"x_min":143,"x_max":593,"o":"m 593 -6 l 535 -6 l 535 72 l 539 135 q 449 28 511 68 q 311 -11 388 -11 q 190 32 235 -11 q 143 144 146 75 l 143 521 l 201 521 l 201 160 q 234 82 204 115 q 322 46 264 49 q 403 60 364 46 q 471 100 442 75 q 517 160 500 125 q 535 236 535 194 l 535 521 l 593 521 l 593 -6 m 369 917 q 453 791 411 854 q 536 665 494 728 l 490 665 q 430 749 460 707 q 369 833 400 792 q 309 749 339 792 q 249 665 279 707 l 203 665 q 286 791 244 728 q 369 917 328 854 z "},"ã":{"ha":765,"x_min":68,"x_max":615,"o":"m 126 261 q 143 178 126 217 q 188 110 160 139 q 256 64 217 81 q 342 47 296 47 q 426 64 388 47 q 494 110 465 81 q 540 178 524 139 q 557 261 557 217 q 540 345 557 306 q 494 414 524 385 q 426 460 465 443 q 342 476 388 476 q 256 460 296 476 q 188 414 217 443 q 143 345 160 385 q 126 261 126 306 m 68 261 q 90 366 68 317 q 148 452 111 415 q 235 510 185 489 q 342 532 285 532 q 418 520 382 532 q 483 490 454 508 q 533 447 513 471 q 563 399 553 422 q 565 460 563 429 q 568 521 567 490 l 615 521 l 615 0 l 563 0 l 563 63 q 563 92 563 78 q 564 121 564 106 q 535 74 556 97 q 487 31 515 50 q 422 1 458 13 q 342 -10 385 -10 q 235 12 285 -10 q 148 69 185 33 q 90 155 111 106 q 68 261 68 204 m 364 682 q 326 713 343 706 q 290 721 310 721 q 266 718 279 721 q 240 708 253 715 q 218 686 228 700 q 206 650 208 672 q 188 651 197 651 q 171 653 179 651 q 183 699 172 679 q 211 731 194 718 q 249 751 228 744 q 289 757 269 757 q 342 744 318 757 q 389 707 367 731 q 428 676 411 683 q 464 668 444 668 q 488 671 474 668 q 514 681 501 674 q 535 703 526 689 q 547 739 544 717 q 566 738 557 738 q 583 736 575 738 q 571 690 582 710 q 543 658 560 671 q 506 638 526 644 q 465 632 485 632 q 412 645 436 632 q 364 682 388 658 z "},"`":{"ha":278,"x_min":-40,"x_max":144,"o":"m 19 850 q 82 758 51 804 q 144 665 113 711 l 99 665 q 29 758 64 711 q -40 850 -6 804 l 19 850 z "},"^":{"ha":653,"x_min":156,"x_max":489,"o":"m 322 917 q 406 791 364 854 q 489 665 447 728 l 443 665 q 383 749 413 707 q 322 833 353 792 q 262 749 292 792 q 201 665 232 707 l 156 665 q 239 791 197 728 q 322 917 281 854 z "},"õ":{"ha":651,"x_min":50,"x_max":597,"o":"m 50 261 q 72 367 50 317 q 130 453 93 417 q 216 512 167 490 q 322 533 265 533 q 429 512 379 533 q 517 453 479 490 q 576 367 554 417 q 597 261 597 317 q 576 155 597 204 q 517 69 554 106 q 429 12 479 33 q 322 -10 379 -10 q 216 12 265 -10 q 130 69 167 33 q 72 155 93 106 q 50 261 50 204 m 108 261 q 125 178 108 217 q 171 110 142 139 q 239 64 200 81 q 322 47 278 47 q 406 64 367 47 q 474 110 444 81 q 520 178 503 139 q 538 261 538 217 q 520 344 538 306 q 474 413 503 383 q 406 459 444 442 q 322 476 367 476 q 239 459 278 476 q 171 413 200 442 q 125 344 142 383 q 108 261 108 306 m 315 682 q 278 713 294 706 q 242 721 261 721 q 217 718 231 721 q 192 708 204 715 q 169 686 179 700 q 157 650 160 672 q 140 651 149 651 q 122 653 131 651 q 135 699 124 679 q 163 731 146 718 q 200 751 179 744 q 240 757 221 757 q 294 744 269 757 q 340 707 318 731 q 379 676 363 683 q 415 668 396 668 q 439 671 425 668 q 465 681 453 674 q 487 703 478 689 q 499 739 496 717 q 517 738 508 738 q 535 736 526 738 q 522 690 533 710 q 494 658 511 671 q 457 638 478 644 q 417 632 436 632 q 363 645 388 632 q 315 682 339 658 z "},"'":{"ha":213,"x_min":79,"x_max":140,"o":"m 79 656 l 79 1000 l 140 1000 q 138 828 139 913 q 135 656 136 743 l 79 656 z "},"_":{"ha":833,"x_min":139,"x_max":694,"o":"m 694 0 l 139 0 l 139 57 l 694 57 l 694 0 z "},"[":{"ha":469,"x_min":115,"x_max":358,"o":"m 115 -207 l 115 1036 l 358 1036 l 358 979 l 175 979 l 175 -150 l 358 -150 l 358 -207 l 115 -207 z "},"]":{"ha":475,"x_min":106,"x_max":349,"o":"m 349 1036 l 349 -207 l 106 -207 l 106 -150 l 289 -150 l 289 979 l 106 979 l 106 1036 l 349 1036 z "},"°":{"ha":392,"x_min":71,"x_max":311,"o":"m 192 699 q 247 722 224 699 q 271 778 271 744 q 247 833 271 810 q 192 856 224 856 q 135 833 158 856 q 113 778 113 810 q 135 722 113 744 q 192 699 158 699 m 71 776 q 106 863 71 828 q 192 897 140 897 q 276 863 242 897 q 311 776 311 828 q 276 692 311 726 q 192 658 242 658 q 106 692 140 658 q 71 776 71 726 z "},"ç":{"ha":539,"x_min":50,"x_max":496,"o":"m 458 93 q 477 72 468 82 q 494 50 486 61 q 331 -10 426 -6 q 336 -41 331 -29 q 351 -60 342 -53 q 369 -74 360 -68 q 388 -85 379 -79 q 432 -133 419 -106 q 444 -185 444 -160 q 414 -281 444 -247 q 336 -321 383 -314 q 288 -319 311 -325 q 229 -293 256 -314 q 190 -235 203 -272 q 210 -226 200 -231 q 229 -218 219 -222 q 258 -262 236 -244 q 313 -279 281 -279 q 375 -253 351 -279 q 399 -187 399 -226 q 382 -134 399 -153 q 344 -101 365 -115 q 307 -73 324 -87 q 290 -32 290 -58 l 290 -6 q 195 22 239 0 q 119 80 151 44 q 68 162 86 115 q 50 261 50 208 q 72 367 50 317 q 130 453 93 417 q 216 510 167 489 q 322 532 265 532 q 417 516 372 532 q 496 472 461 500 q 477 451 486 461 q 458 429 468 440 q 397 464 431 451 q 322 476 363 476 q 238 460 276 476 q 170 414 199 443 q 125 345 142 385 q 108 261 108 306 q 125 178 108 217 q 170 110 142 139 q 238 64 199 81 q 322 47 276 47 q 458 93 401 47 z "},"Ç":{"ha":931,"x_min":86,"x_max":836,"o":"m 803 106 l 835 58 q 719 8 781 26 q 590 -11 657 -10 q 610 -60 590 -47 q 647 -85 629 -74 q 690 -133 678 -106 q 703 -185 703 -160 q 667 -288 703 -251 q 575 -325 632 -325 q 500 -303 535 -325 q 450 -235 465 -281 l 488 -218 q 517 -262 496 -244 q 571 -279 539 -279 q 634 -253 611 -279 q 657 -187 657 -226 q 640 -134 657 -153 q 603 -101 624 -115 q 567 -73 583 -87 q 550 -32 550 -58 l 550 -10 q 368 37 453 -4 q 221 144 283 78 q 122 299 158 211 q 86 485 86 386 q 125 678 86 588 q 231 837 164 769 q 389 944 299 904 q 582 983 479 983 q 716 965 653 983 q 836 914 779 947 q 820 890 828 903 q 804 867 813 878 q 699 912 756 896 q 582 928 643 928 q 412 892 492 928 q 272 797 332 857 q 178 656 213 736 q 144 483 144 575 q 178 313 144 393 q 272 174 213 233 q 410 79 332 114 q 579 44 489 44 q 697 60 642 44 q 803 106 753 76 z "},"–":{"ha":707,"x_min":139,"x_max":557,"o":"m 139 246 l 139 303 l 557 303 l 557 246 l 139 246 z "},"—":{"ha":972,"x_min":138,"x_max":835,"o":"m 138 246 l 138 303 l 835 303 l 835 246 l 138 246 z "},"¸":{"ha":628,"x_min":163,"x_max":417,"o":"m 263 0 l 303 0 l 303 -8 q 308 -40 303 -28 q 323 -60 314 -51 q 342 -74 332 -68 q 361 -85 353 -79 q 404 -133 392 -106 q 417 -185 417 -160 q 381 -288 417 -251 q 289 -325 346 -325 q 213 -303 249 -325 q 163 -235 178 -281 q 182 -226 172 -231 q 201 -218 192 -222 q 231 -262 208 -244 q 285 -279 253 -279 q 347 -253 324 -279 q 371 -187 371 -226 q 354 -134 371 -153 q 317 -101 338 -115 q 279 -73 296 -87 q 263 -32 263 -58 l 263 0 z "},"´":{"ha":333,"x_min":139,"x_max":324,"o":"m 139 665 q 201 758 171 711 q 264 850 232 804 l 324 850 q 254 758 289 804 q 185 665 219 711 l 139 665 z "},"¨":{"ha":514,"x_min":96,"x_max":415,"o":"m 325 706 q 339 738 325 725 q 371 751 353 751 q 402 738 389 751 q 415 706 415 725 q 402 673 415 686 q 371 660 389 660 q 339 673 353 660 q 325 706 325 686 m 96 706 q 110 738 96 725 q 142 751 124 751 q 172 738 158 751 q 186 706 186 725 q 172 673 186 686 q 142 660 158 660 q 110 673 124 660 q 96 706 96 686 z "},"Ð":{"ha":897,"x_min":31,"x_max":814,"o":"m 163 460 l 163 56 l 288 56 q 474 86 388 56 q 622 173 560 117 q 721 308 685 229 q 757 486 757 388 q 722 665 757 586 q 625 801 688 744 q 476 887 563 857 q 288 917 390 917 l 163 917 l 163 517 l 450 517 l 450 460 l 163 460 m 106 517 l 106 972 l 304 972 q 501 938 408 972 q 663 841 593 904 q 773 688 732 778 q 814 486 814 597 q 784 318 814 404 q 688 161 754 232 q 514 45 621 90 q 254 0 407 0 l 106 0 l 106 460 l 31 460 l 31 517 l 106 517 z "},"þ":{"ha":774,"x_min":93,"x_max":640,"o":"m 582 260 q 565 344 582 306 q 520 412 549 383 q 452 457 492 440 q 367 474 413 474 q 281 457 321 474 q 213 412 242 440 q 168 344 185 383 q 151 260 151 306 q 168 176 151 215 q 213 107 185 136 q 281 61 242 78 q 367 44 321 44 q 452 61 413 44 q 520 107 492 78 q 565 176 549 136 q 582 260 582 215 m 640 260 q 619 155 640 204 q 560 69 597 106 q 474 10 524 32 q 367 -11 424 -11 q 288 0 324 -11 q 223 29 251 11 q 174 71 194 47 q 146 118 154 94 q 149 90 147 104 q 151 61 150 76 l 151 -347 l 93 -347 l 93 1042 l 151 1042 l 151 468 q 147 432 149 450 q 144 396 146 414 q 174 444 153 421 q 224 487 194 468 q 290 517 253 506 q 367 529 326 529 q 474 508 424 529 q 560 450 524 486 q 619 365 597 414 q 640 260 640 315 z "},"ð":{"ha":685,"x_min":72,"x_max":619,"o":"m 131 261 q 147 178 131 217 q 193 110 164 139 q 262 65 222 81 q 347 49 301 49 q 433 66 393 49 q 501 113 472 83 q 545 181 529 142 q 561 264 561 219 q 544 349 561 310 q 497 417 526 388 q 429 462 468 446 q 344 478 390 478 q 259 460 299 478 q 191 414 219 443 q 147 345 163 385 q 131 261 131 306 m 194 751 q 242 802 218 776 q 289 853 265 828 q 160 976 226 922 l 199 1015 q 328 894 265 963 q 370 940 349 918 q 411 986 392 963 q 431 969 422 978 q 450 953 440 961 q 406 903 428 928 q 361 854 385 879 q 460 719 413 792 q 542 569 507 646 q 599 416 578 493 q 619 267 619 339 q 599 160 619 210 q 542 74 578 111 q 456 15 506 36 q 349 -8 406 -7 q 242 12 292 -8 q 154 69 192 32 q 95 154 117 106 q 72 260 74 203 q 92 365 72 315 q 149 452 113 415 q 235 511 186 489 q 342 533 285 533 q 439 513 394 535 q 514 456 483 492 q 450 617 496 525 q 321 810 404 710 q 277 763 299 786 q 233 715 256 739 q 214 733 224 725 q 194 751 204 742 z "},"Þ":{"ha":696,"x_min":139,"x_max":646,"o":"m 197 285 l 340 285 q 460 304 413 285 q 537 354 508 324 q 576 420 565 385 q 588 489 588 456 q 569 564 588 528 q 517 628 550 600 q 440 672 485 656 q 342 688 394 688 l 197 688 l 197 285 m 197 0 l 139 0 l 139 972 l 197 972 l 197 743 l 347 743 q 442 729 390 743 q 540 685 494 715 q 615 606 585 654 q 646 489 646 557 q 569 299 646 369 q 350 228 493 228 l 197 228 l 197 0 z "},"Â":{"ha":1028,"x_min":83,"x_max":944,"o":"m 526 849 q 520 868 524 858 q 514 888 517 878 q 433 679 478 782 q 343 472 388 576 l 686 472 q 606 661 646 568 q 526 849 567 754 m 944 0 l 886 0 q 798 208 842 104 q 710 417 754 313 l 319 417 q 231 208 275 313 q 143 0 188 104 l 83 0 q 299 508 192 256 q 514 1017 406 761 q 729 508 622 761 q 944 0 836 256 m 515 1293 q 599 1167 557 1231 q 682 1042 640 1104 l 636 1042 q 576 1126 606 1083 q 515 1210 546 1168 q 455 1126 485 1168 q 394 1042 425 1083 l 349 1042 q 432 1167 390 1104 q 515 1293 474 1231 z "},"Ê":{"ha":835,"x_min":118,"x_max":714,"o":"m 118 0 l 118 972 l 694 972 l 694 917 l 175 917 l 175 518 l 640 518 l 640 463 l 175 463 l 175 56 l 714 56 l 714 0 l 118 0 m 417 1293 q 500 1167 458 1231 q 583 1042 542 1104 l 538 1042 q 477 1126 507 1083 q 417 1210 447 1168 q 356 1126 386 1168 q 296 1042 326 1083 l 250 1042 q 333 1167 292 1104 q 417 1293 375 1231 z "},"Î":{"ha":356,"x_min":7,"x_max":340,"o":"m 144 972 l 201 972 l 201 0 l 144 0 l 144 972 m 174 1293 q 257 1167 215 1231 q 340 1042 299 1104 l 294 1042 q 234 1126 264 1083 q 174 1210 204 1168 q 113 1126 143 1168 q 53 1042 83 1083 l 7 1042 q 90 1167 49 1104 q 174 1293 132 1231 z "},"Ô":{"ha":1165,"x_min":86,"x_max":1081,"o":"m 86 485 q 125 678 86 588 q 231 837 164 769 q 389 944 299 904 q 582 983 479 983 q 776 944 685 983 q 934 837 867 904 q 1041 678 1001 769 q 1081 485 1081 588 q 1041 292 1081 382 q 934 134 1001 201 q 776 28 867 67 q 582 -11 685 -11 q 389 28 479 -11 q 231 134 299 67 q 125 292 164 201 q 86 485 86 382 m 144 483 q 178 312 144 392 q 272 173 213 232 q 411 79 332 114 q 581 44 490 44 q 751 79 671 44 q 892 174 832 114 q 988 313 953 233 q 1022 485 1022 393 q 988 657 1022 576 q 893 798 953 738 q 753 893 833 858 q 582 928 672 928 q 412 892 492 928 q 272 797 332 857 q 178 656 213 736 q 144 483 144 575 m 578 1293 q 661 1167 619 1231 q 744 1042 703 1104 l 699 1042 q 638 1126 668 1083 q 578 1210 608 1168 q 517 1126 547 1168 q 457 1042 488 1083 l 411 1042 q 494 1167 453 1104 q 578 1293 536 1231 z "},"Û":{"ha":906,"x_min":129,"x_max":785,"o":"m 456 -11 q 325 10 385 -11 q 222 72 265 31 q 153 174 178 113 q 129 314 129 235 l 129 972 l 186 972 l 186 318 q 206 201 186 251 q 262 115 226 150 q 347 63 297 81 q 456 44 397 44 q 563 63 514 44 q 649 115 613 81 q 706 201 686 150 q 726 318 726 251 l 726 972 l 785 972 l 785 314 q 760 174 785 235 q 690 72 735 113 q 585 10 646 31 q 456 -11 525 -11 m 453 1335 q 536 1209 494 1272 q 619 1083 578 1146 l 574 1083 q 513 1167 543 1125 q 453 1251 483 1210 q 392 1167 422 1210 q 332 1083 363 1125 l 286 1083 q 369 1209 328 1146 q 453 1335 411 1272 z "},"±":{"ha":728,"x_min":119,"x_max":619,"o":"m 340 293 l 340 515 l 119 515 l 119 572 l 340 572 l 340 793 l 399 793 l 399 572 l 619 572 l 619 515 l 399 515 l 399 293 l 340 293 m 619 169 l 119 169 l 119 225 l 619 225 l 619 169 z "},"$":{"ha":788,"x_min":92,"x_max":672,"o":"m 182 728 q 220 622 182 657 q 324 564 258 586 q 349 554 336 556 l 349 919 q 276 898 307 915 q 224 854 244 881 q 192 795 203 828 q 182 728 182 763 m 614 256 q 596 341 614 306 q 548 401 578 376 q 481 442 518 425 q 407 471 444 458 l 407 49 q 486 69 449 53 q 552 111 524 85 q 597 174 581 138 q 614 256 614 211 m 600 890 q 583 868 590 879 q 567 846 575 857 q 504 889 544 865 q 407 919 464 913 l 407 532 q 497 497 450 517 q 583 445 544 476 q 647 369 622 414 q 672 258 672 324 q 651 153 672 200 q 594 71 631 106 q 510 15 558 36 q 407 -10 463 -6 l 407 -94 l 349 -94 l 349 -8 q 259 10 300 -4 q 185 44 218 25 q 129 85 153 64 q 92 124 106 107 l 131 163 q 171 125 149 144 q 220 89 193 106 q 279 60 247 72 q 349 46 311 49 l 349 492 q 329 500 343 494 q 268 523 303 508 q 202 563 233 538 q 149 626 171 588 q 125 718 126 664 q 134 806 122 761 q 173 886 146 850 q 244 947 200 922 q 349 976 288 972 l 349 1061 l 407 1061 l 407 975 q 502 953 454 972 q 600 890 550 933 z "},"¢":{"ha":535,"x_min":50,"x_max":496,"o":"m 108 261 q 156 125 108 182 q 279 54 204 68 l 279 467 q 210 443 242 461 q 156 397 179 425 q 121 335 133 369 q 108 261 108 300 m 458 93 q 477 72 468 82 q 494 50 486 61 q 338 -8 428 -6 l 338 -94 l 279 -94 l 279 -4 q 188 26 231 3 q 115 85 146 50 q 67 166 85 121 q 50 261 50 211 q 67 357 50 311 q 115 438 85 403 q 188 497 146 474 q 279 528 231 521 l 279 608 l 338 608 l 338 532 q 423 514 382 529 q 496 472 464 499 q 477 451 486 461 q 458 429 468 440 q 402 460 433 449 q 338 474 371 472 l 338 47 q 458 93 406 51 z "},"•":{"ha":665,"x_min":208,"x_max":458,"o":"m 208 417 q 218 466 208 443 q 244 506 228 489 q 283 533 261 524 q 332 543 306 543 q 422 506 385 543 q 458 417 458 469 q 449 368 458 390 q 422 329 439 346 q 381 303 404 313 q 332 293 358 293 q 244 328 279 293 q 208 417 208 364 z "},"“":{"ha":346,"x_min":32,"x_max":278,"o":"m 278 819 q 264 806 271 813 q 250 792 257 799 q 193 879 210 828 q 188 988 176 931 q 210 983 199 985 q 232 978 221 981 q 235 888 222 929 q 278 819 249 847 m 133 819 q 119 806 126 813 q 106 792 113 799 q 49 879 65 828 q 43 988 32 931 q 65 983 54 985 q 88 978 76 981 q 91 888 78 929 q 133 819 104 847 z "},"”":{"ha":344,"x_min":43,"x_max":289,"o":"m 71 792 q 57 806 64 799 q 43 819 50 813 q 85 888 72 847 q 89 978 99 929 q 111 983 100 981 q 133 988 122 985 q 128 879 144 931 q 71 792 111 828 m 215 792 q 201 806 208 799 q 188 819 194 813 q 230 888 217 847 q 233 978 243 929 q 256 983 244 981 q 278 988 267 985 q 272 879 289 931 q 215 792 256 828 z "},"‘":{"ha":228,"x_min":39,"x_max":142,"o":"m 142 819 l 114 792 q 56 879 74 828 q 50 988 39 931 q 73 983 61 985 q 96 978 85 981 q 99 888 86 929 q 142 819 113 847 z "},"„":{"ha":385,"x_min":28,"x_max":274,"o":"m 56 -68 q 28 -40 40 -56 q 70 28 57 -12 q 74 118 83 69 q 96 123 85 121 q 118 128 107 125 q 113 19 129 71 q 56 -68 96 -32 m 200 -68 q 172 -40 185 -56 q 215 28 201 -12 q 218 118 228 69 q 240 123 229 121 q 263 128 251 125 q 257 19 274 71 q 200 -68 240 -32 z "},"‚":{"ha":203,"x_min":28,"x_max":129,"o":"m 56 -68 q 28 -40 40 -56 q 70 28 57 -12 q 74 118 83 69 q 96 123 85 121 q 118 128 107 125 q 113 19 129 71 q 56 -68 96 -32 z "},"›":{"ha":544,"x_min":163,"x_max":400,"o":"m 163 107 l 400 332 q 281 444 340 389 q 163 556 222 499 l 163 489 q 240 410 201 449 q 317 332 278 372 l 163 174 l 163 107 z "},"«":{"ha":835,"x_min":163,"x_max":638,"o":"m 638 107 l 400 332 q 519 444 460 389 q 638 556 578 499 l 638 489 q 560 411 599 450 q 483 332 522 372 l 638 174 l 638 107 m 400 107 l 163 332 q 281 444 222 389 q 400 556 340 499 l 400 489 q 323 410 361 449 q 246 332 285 372 l 400 174 l 400 107 z "},"»":{"ha":835,"x_min":163,"x_max":638,"o":"m 163 107 l 400 332 q 281 444 340 389 q 163 556 222 499 l 163 489 q 240 411 201 450 q 317 332 278 372 l 163 174 l 163 107 m 400 107 l 638 332 q 519 444 578 389 q 400 556 460 499 l 400 489 q 477 410 439 449 q 554 332 515 372 l 400 174 l 400 107 z "},"¥":{"ha":886,"x_min":47,"x_max":835,"o":"m 671 196 l 671 139 l 476 139 l 476 0 l 407 0 l 407 139 l 208 139 l 208 196 l 407 196 l 407 365 l 208 365 l 208 422 l 375 422 q 211 697 292 561 q 47 972 131 833 l 118 972 q 271 715 194 842 q 425 458 347 588 q 433 438 429 447 q 442 419 438 429 l 443 419 q 451 438 447 429 q 458 458 454 447 q 612 715 536 588 q 764 972 688 842 l 835 972 q 671 697 751 833 q 507 422 590 561 l 671 422 l 671 365 l 476 365 l 476 196 l 671 196 z "},"©":{"ha":1101,"x_min":197,"x_max":914,"o":"m 554 192 q 682 216 622 192 q 785 284 742 240 q 855 387 829 328 q 881 515 881 446 q 855 646 881 586 q 785 749 829 706 q 682 818 742 793 q 554 843 622 843 q 428 818 488 843 q 326 749 369 793 q 256 646 282 706 q 231 515 231 586 q 256 387 231 446 q 326 284 282 328 q 428 216 369 240 q 554 192 488 192 m 556 160 q 415 187 481 160 q 301 262 350 214 q 225 375 253 310 q 197 517 197 440 q 225 660 197 594 q 301 773 253 725 q 415 848 350 821 q 556 875 481 875 q 696 848 631 875 q 810 773 761 821 q 886 660 858 725 q 914 517 914 594 q 886 375 914 440 q 810 262 858 310 q 696 187 761 214 q 556 160 631 160 m 663 349 l 678 328 q 624 304 653 313 q 563 296 594 296 q 476 314 517 296 q 404 363 435 332 q 356 434 374 393 q 339 521 339 475 q 356 609 339 568 q 404 681 374 650 q 476 728 435 711 q 563 746 517 746 q 678 715 625 746 q 670 704 674 710 q 664 693 667 699 q 563 721 617 721 q 486 705 522 721 q 423 662 450 689 q 381 598 396 635 q 365 519 365 561 q 381 443 365 479 q 423 380 396 407 q 485 337 450 353 q 561 321 521 321 q 614 328 589 321 q 663 349 639 336 z "},"®":{"ha":1113,"x_min":197,"x_max":914,"o":"m 554 192 q 682 216 622 192 q 785 284 742 240 q 855 387 829 328 q 881 515 881 446 q 855 646 881 586 q 785 749 829 706 q 682 818 742 793 q 554 843 622 843 q 428 818 488 843 q 326 749 369 793 q 256 646 282 706 q 231 515 231 586 q 256 387 231 446 q 326 284 282 328 q 428 216 369 240 q 554 192 488 192 m 556 160 q 415 187 481 160 q 301 262 350 214 q 225 375 253 310 q 197 517 197 440 q 225 660 197 594 q 301 773 253 725 q 415 848 350 821 q 556 875 481 875 q 696 848 631 875 q 810 773 761 821 q 886 660 858 725 q 914 517 914 594 q 886 375 914 440 q 810 262 858 310 q 696 187 761 214 q 556 160 631 160 m 483 535 l 553 535 q 610 544 588 535 q 645 567 632 553 q 664 599 658 582 q 669 631 669 615 q 635 697 669 668 q 553 725 601 725 l 483 725 l 483 535 m 457 292 l 457 751 l 556 751 q 601 744 576 751 q 646 723 625 738 q 681 685 667 708 q 696 631 696 663 q 671 553 696 585 q 597 511 646 522 q 649 401 624 456 q 701 292 675 346 l 672 292 q 569 510 619 403 q 558 508 563 508 q 546 508 553 508 l 483 508 l 483 292 l 457 292 z "},"÷":{"ha":696,"x_min":94,"x_max":594,"o":"m 594 289 l 94 289 l 94 346 l 594 346 l 594 289 m 303 492 q 317 524 303 511 q 349 538 331 538 q 380 524 367 538 q 393 492 393 511 q 380 459 393 472 q 349 446 367 446 q 317 459 331 446 q 303 492 303 472 m 303 144 q 317 177 303 164 q 349 190 331 190 q 380 177 367 190 q 393 144 393 164 q 380 112 393 125 q 349 99 367 99 q 317 112 331 99 q 303 144 303 125 z "},"½":{"ha":1485,"x_min":168,"x_max":1204,"o":"m 168 925 l 168 966 l 303 966 l 303 325 l 262 325 l 262 925 l 168 925 m 897 40 l 1204 40 l 1204 0 l 797 0 q 917 119 858 61 q 1021 234 975 178 q 1093 341 1066 289 q 1121 438 1121 392 q 1106 519 1121 487 q 1071 570 1092 551 q 1025 598 1050 590 q 978 607 1000 607 q 906 591 934 607 q 862 553 878 575 q 839 503 846 530 q 833 455 833 477 q 843 394 833 421 q 871 347 853 368 q 859 335 865 341 q 847 322 853 329 q 806 381 821 345 q 792 455 792 417 q 804 529 792 495 q 840 590 816 564 q 898 632 863 616 q 978 647 933 647 q 1053 632 1020 647 q 1111 590 1087 616 q 1149 527 1135 563 q 1162 450 1162 492 q 1138 345 1162 397 q 1076 241 1114 292 q 990 140 1037 190 q 897 40 943 89 m 388 -26 q 581 498 485 237 q 774 1021 676 758 l 832 1021 q 639 498 735 758 q 446 -26 543 237 l 388 -26 z "},"¼":{"ha":1344,"x_min":182,"x_max":1174,"o":"m 388 -26 q 581 498 485 237 q 774 1021 676 758 l 832 1021 q 639 498 735 758 q 446 -26 543 237 l 388 -26 m 1031 553 q 908 393 969 473 q 784 232 846 312 l 1031 232 l 1031 553 m 697 189 q 885 435 791 312 q 1074 681 979 557 l 1074 232 l 1174 232 l 1174 189 l 1074 189 l 1074 0 l 1031 0 l 1031 189 l 697 189 m 182 925 l 182 965 l 317 965 l 317 325 l 276 325 l 276 925 l 182 925 z "},"ª":{"ha":813,"x_min":129,"x_max":524,"o":"m 172 613 q 184 553 172 581 q 216 504 196 525 q 265 471 237 483 q 327 459 294 459 q 388 471 360 459 q 437 504 416 483 q 470 553 458 525 q 482 613 482 581 q 470 674 482 645 q 437 724 458 702 q 388 757 416 745 q 327 769 360 769 q 265 757 294 769 q 216 724 237 745 q 184 674 196 702 q 172 613 172 645 m 130 613 q 145 689 130 653 q 187 751 161 725 q 250 793 214 778 q 327 809 286 809 q 382 800 356 809 q 429 778 408 792 q 465 747 450 765 q 486 712 479 730 q 488 757 486 735 q 490 801 489 779 l 524 801 l 524 425 l 486 425 l 486 470 q 487 491 486 481 q 487 512 487 501 q 467 478 481 495 q 432 448 452 461 q 385 426 411 434 q 327 418 358 418 q 250 434 286 418 q 187 475 214 449 q 145 537 161 501 q 130 613 130 572 z "},"£":{"ha":797,"x_min":38,"x_max":708,"o":"m 199 57 l 465 57 l 500 57 q 617 72 585 57 q 650 129 650 86 l 650 201 l 708 201 l 708 119 q 705 74 708 96 q 685 36 701 53 q 637 10 669 19 q 544 0 604 0 l 38 0 l 38 57 l 99 57 q 137 65 122 57 q 159 94 151 74 q 169 149 167 114 q 171 238 171 183 l 171 411 l 81 411 l 81 468 l 171 468 l 171 694 q 240 836 171 792 q 426 881 308 881 q 570 844 519 881 q 649 751 621 807 q 627 738 638 744 q 606 725 617 732 q 577 767 592 749 q 542 797 563 785 q 494 817 522 810 q 426 824 467 824 q 274 787 318 824 q 229 686 229 750 l 229 468 l 401 468 l 401 411 l 229 411 l 229 215 l 229 182 q 224 109 229 142 q 199 57 219 76 z "},"¹":{"ha":360,"x_min":89,"x_max":176,"o":"m 90 946 l 90 972 l 177 972 l 177 557 l 150 557 l 150 946 l 90 946 z "},"¾":{"ha":1772,"x_min":203,"x_max":1450,"o":"m 299 658 q 398 799 349 729 q 496 940 446 869 l 230 940 l 230 984 l 576 984 l 386 720 q 467 699 429 716 q 534 652 505 681 q 578 585 562 623 q 594 502 594 547 q 576 415 594 456 q 528 344 559 374 q 456 295 498 313 q 369 278 415 278 q 278 297 320 278 q 204 350 235 317 l 237 384 q 294 339 261 356 q 367 322 327 322 q 438 336 404 322 q 496 375 471 350 q 535 433 520 400 q 549 502 549 465 q 535 571 549 538 q 496 628 520 604 q 438 667 471 653 q 367 681 404 681 q 332 675 349 681 q 299 658 314 669 m 631 -26 q 824 498 728 238 q 1017 1022 919 758 l 1075 1022 q 882 498 978 758 q 689 -26 786 238 l 631 -26 m 1306 553 q 1183 393 1244 473 q 1059 232 1121 312 l 1306 232 l 1306 553 m 972 189 q 1161 435 1067 312 q 1350 681 1255 557 l 1350 232 l 1450 232 l 1450 189 l 1350 189 l 1350 0 l 1306 0 l 1306 189 l 972 189 z "},"²":{"ha":553,"x_min":139,"x_max":428,"o":"m 213 549 l 428 549 l 428 521 l 143 521 q 228 604 187 563 q 300 684 268 645 q 351 759 332 723 q 370 827 370 795 q 360 883 370 860 q 335 919 350 905 q 303 938 321 932 q 270 944 286 944 q 220 933 240 944 q 189 906 200 922 q 173 872 178 891 q 169 838 169 854 q 176 796 169 814 q 196 763 183 777 q 187 755 191 759 q 178 746 183 751 q 150 787 161 762 q 140 838 140 812 q 149 890 140 866 q 174 933 157 915 q 214 962 190 951 q 270 972 239 972 q 323 962 299 972 q 364 932 347 951 q 390 889 380 914 q 399 835 399 864 q 382 761 399 798 q 338 689 365 725 q 279 618 312 653 q 213 549 246 583 z "},"¶":{"ha":711,"x_min":53,"x_max":564,"o":"m 338 0 l 279 0 l 279 588 q 190 605 232 588 q 118 653 149 622 q 70 725 88 683 q 53 814 53 767 q 70 903 53 861 q 118 975 88 944 q 190 1024 149 1006 q 279 1042 232 1042 l 564 1042 l 564 0 l 506 0 l 506 985 l 338 985 l 338 0 z "},"¬":{"ha":776,"x_min":139,"x_max":639,"o":"m 581 206 l 581 293 l 139 293 l 139 339 l 639 339 l 639 206 l 581 206 z "},"³":{"ha":582,"x_min":121,"x_max":371,"o":"m 183 765 q 246 855 215 810 q 308 944 277 899 l 139 944 l 139 972 l 360 972 l 239 804 q 290 791 266 802 q 333 761 315 779 q 361 718 351 743 q 371 665 371 694 q 360 610 371 636 q 329 564 349 584 q 283 534 310 545 q 228 522 257 522 q 169 535 196 522 q 122 569 142 548 l 143 590 q 180 561 158 572 q 226 550 201 550 q 271 560 250 550 q 308 585 293 569 q 333 621 324 600 q 343 665 343 642 q 333 709 343 689 q 308 746 324 730 q 271 771 293 762 q 226 779 250 779 q 204 776 215 779 q 183 765 193 772 z "},"¦":{"ha":299,"x_min":124,"x_max":182,"o":"m 182 -324 l 124 -324 l 124 163 l 182 163 l 182 -324 m 182 486 l 124 486 l 124 972 l 182 972 l 182 486 z "},"&":{"ha":972,"x_min":147,"x_max":838,"o":"m 204 260 q 221 176 204 215 q 266 108 238 138 q 334 63 294 79 q 419 46 374 46 q 528 74 481 46 q 604 149 576 103 q 504 311 554 231 q 406 474 454 392 q 326 452 363 469 q 262 407 289 435 q 219 341 235 379 q 204 260 204 303 m 693 315 l 693 260 q 667 150 693 203 q 712 77 690 114 q 757 4 733 40 q 735 -11 746 -3 q 713 -26 724 -19 q 675 35 693 4 q 638 94 657 65 q 543 17 600 46 q 419 -11 486 -11 q 313 10 363 -11 q 227 68 264 32 q 169 153 190 104 q 147 260 147 203 q 164 355 147 310 q 211 435 181 400 q 283 494 242 471 q 372 526 324 518 q 322 608 347 567 q 274 689 297 649 q 238 775 249 731 q 235 863 228 819 q 267 943 242 906 q 338 1008 292 981 q 417 1037 376 1032 q 497 1035 458 1042 q 570 1013 536 1028 q 631 981 604 997 q 619 956 624 968 q 607 933 614 944 q 553 960 582 947 q 495 980 525 974 q 435 983 465 986 q 375 963 404 981 q 292 844 300 915 q 325 706 283 774 q 470 469 399 588 q 615 233 542 351 q 631 284 625 258 q 640 338 638 310 l 640 396 q 658 472 644 446 q 690 508 671 497 q 732 520 708 519 q 781 521 756 521 l 838 521 l 838 464 l 765 464 q 708 432 722 464 q 693 315 693 400 z "},"ß":{"ha":796,"x_min":31,"x_max":683,"o":"m 254 24 q 267 49 261 36 q 278 74 272 61 q 389 44 328 44 q 481 63 438 44 q 556 114 524 82 q 606 188 588 146 q 625 278 625 231 q 606 367 625 325 q 556 440 588 408 q 481 489 524 471 q 390 507 439 507 l 390 536 l 390 565 q 496 603 453 565 q 539 701 539 640 q 528 760 539 732 q 497 810 517 789 q 451 844 478 832 q 392 857 424 857 q 308 837 347 856 q 240 784 269 818 q 194 701 211 750 q 178 590 178 651 l 178 0 l 121 0 l 121 494 l 31 494 l 31 550 l 121 550 l 121 590 q 142 726 121 667 q 201 827 164 786 q 288 890 239 868 q 392 914 338 913 q 472 896 435 913 q 538 851 510 879 q 581 785 565 822 q 597 704 597 747 q 569 608 597 651 q 496 540 540 564 q 571 501 536 526 q 631 441 606 475 q 669 365 656 407 q 683 278 683 324 q 660 165 683 218 q 597 74 636 113 q 503 12 557 35 q 390 -11 450 -11 q 254 24 317 -11 z "},"¤":{"ha":694,"x_min":138,"x_max":549,"o":"m 203 501 q 214 446 203 472 q 244 400 225 419 q 289 369 264 381 q 343 358 314 358 q 399 369 372 358 q 444 400 425 381 q 474 446 463 419 q 485 501 485 472 q 474 556 485 531 q 444 601 463 582 q 399 632 425 621 q 343 643 372 643 q 289 632 314 643 q 244 601 264 621 q 214 556 225 582 q 203 501 203 531 m 144 501 q 154 563 144 533 q 182 617 164 593 q 160 640 171 628 q 138 663 149 651 l 179 703 l 224 658 q 278 689 249 678 q 343 700 308 700 q 408 688 378 700 q 463 657 439 676 l 507 703 l 549 661 l 504 618 q 543 501 543 567 q 501 382 543 435 l 549 333 l 508 293 q 484 317 496 304 q 460 340 472 329 q 406 313 436 322 q 343 303 375 303 q 281 313 311 303 q 228 339 251 322 l 179 292 l 138 332 l 186 381 q 144 501 144 433 z "},"§":{"ha":694,"x_min":183,"x_max":532,"o":"m 251 460 q 297 401 264 422 q 368 383 329 381 q 413 396 393 385 q 447 425 433 407 q 468 465 461 443 q 474 510 475 486 q 459 556 471 535 q 430 590 447 576 q 391 612 413 604 q 347 618 369 619 q 293 600 315 615 q 258 562 271 585 q 244 512 246 539 q 251 460 242 485 m 328 211 q 285 281 303 251 q 253 334 267 311 q 230 375 240 357 q 211 410 219 393 q 188 472 193 439 q 190 538 183 506 q 215 599 197 571 q 261 646 233 626 q 326 667 292 665 q 394 658 361 669 q 357 722 375 690 q 319 788 339 754 q 288 855 297 826 q 278 904 278 883 q 288 940 279 925 q 308 967 296 954 q 357 1002 328 986 q 410 1032 386 1018 q 424 1007 417 1019 q 439 983 432 994 l 376 946 q 342 892 340 925 q 383 794 344 860 q 444 690 414 742 q 506 585 474 638 q 528 522 524 556 q 525 458 532 489 q 499 399 518 426 q 453 353 481 372 q 388 331 422 333 q 319 339 353 328 q 358 274 339 307 q 396 208 376 240 q 428 141 418 169 q 437 92 438 113 q 428 56 436 71 q 407 29 419 42 q 360 -7 389 8 q 307 -36 331 -22 q 292 -11 300 -24 q 278 13 285 1 l 340 50 q 373 104 376 69 q 328 211 369 139 z "},"·":{"ha":229,"x_min":74,"x_max":164,"o":"m 74 390 q 88 423 74 410 q 119 436 101 436 q 150 423 136 436 q 164 390 164 410 q 150 358 164 371 q 119 344 136 344 q 88 358 101 344 q 74 390 74 371 z "},"º":{"ha":651,"x_min":125,"x_max":521,"o":"m 126 613 q 142 689 126 653 q 184 752 157 726 q 246 794 210 779 q 323 810 282 810 q 400 794 364 810 q 463 752 436 779 q 505 689 490 726 q 521 613 521 653 q 505 537 521 572 q 463 475 490 501 q 400 434 436 449 q 323 418 364 418 q 246 434 282 418 q 184 475 210 449 q 142 537 157 501 q 126 613 126 572 m 168 613 q 180 553 168 581 q 213 504 192 525 q 263 471 235 483 q 323 459 291 459 q 383 471 355 459 q 432 504 411 483 q 465 553 453 525 q 478 613 478 581 q 465 673 478 645 q 432 723 453 701 q 383 756 411 744 q 323 769 355 769 q 263 756 291 769 q 213 723 235 744 q 180 673 192 701 q 168 613 168 645 z "},"¯":{"ha":554,"x_min":118,"x_max":438,"o":"m 118 675 l 118 717 l 438 717 l 438 675 l 118 675 z "},"µ":{"ha":757,"x_min":143,"x_max":593,"o":"m 593 -6 l 535 -6 l 535 72 l 539 135 q 451 29 511 68 q 311 -11 390 -10 q 247 2 275 -11 q 201 39 218 15 l 201 -279 l 143 -279 l 143 521 l 201 521 l 201 160 q 234 82 204 115 q 322 46 264 49 q 403 60 364 46 q 471 100 442 75 q 517 160 500 125 q 535 236 535 194 l 535 521 l 593 521 l 593 -6 z "},"×":{"ha":694,"x_min":169,"x_max":564,"o":"m 524 0 q 444 78 483 40 q 365 157 406 117 q 288 79 326 118 q 210 0 250 40 q 190 21 200 11 q 169 40 179 31 q 248 119 210 81 q 325 197 286 157 l 169 353 l 211 394 l 367 239 q 445 317 407 279 q 524 394 483 354 q 543 374 533 385 q 564 354 553 364 q 485 276 524 315 q 407 199 447 238 q 485 119 447 158 q 564 42 524 81 l 524 0 z "},"O":{"ha":1167,"x_min":86,"x_max":1081,"o":"m 86 485 q 125 678 86 588 q 231 837 164 769 q 389 944 299 904 q 582 983 479 983 q 776 944 685 983 q 934 837 867 904 q 1041 678 1001 769 q 1081 485 1081 588 q 1041 292 1081 382 q 934 134 1001 201 q 776 28 867 67 q 582 -11 685 -11 q 389 28 479 -11 q 231 134 299 67 q 125 292 164 201 q 86 485 86 382 m 144 483 q 178 312 144 392 q 272 173 213 232 q 411 79 332 114 q 581 44 490 44 q 751 79 671 44 q 892 174 832 114 q 988 313 953 233 q 1022 485 1022 393 q 988 657 1022 576 q 893 798 953 738 q 753 893 833 858 q 582 928 672 928 q 412 892 492 928 q 272 797 332 857 q 178 656 213 736 q 144 483 144 575 z "},"g":{"ha":719,"x_min":68,"x_max":615,"o":"m 126 261 q 143 178 126 217 q 188 110 160 139 q 256 64 217 81 q 342 47 296 47 q 426 64 388 47 q 494 110 465 81 q 540 178 524 139 q 557 261 557 217 q 540 345 557 306 q 494 414 524 385 q 426 460 465 443 q 342 476 388 476 q 256 460 296 476 q 188 414 217 443 q 143 345 160 385 q 126 261 126 306 m 568 521 l 615 521 l 615 -24 l 615 -49 q 594 -172 615 -117 q 538 -265 574 -226 q 453 -325 501 -304 q 350 -347 406 -346 q 233 -325 292 -346 q 136 -264 174 -304 q 157 -242 147 -253 q 178 -221 167 -232 q 256 -271 208 -254 q 349 -287 303 -287 q 430 -270 392 -287 q 496 -221 468 -253 q 540 -144 524 -189 q 557 -44 557 -99 l 557 56 q 560 88 558 71 q 563 119 561 104 q 483 31 542 69 q 342 -10 424 -8 q 235 12 285 -10 q 148 69 185 33 q 90 155 111 106 q 68 261 68 204 q 90 366 68 317 q 148 452 111 415 q 235 510 185 489 q 342 532 285 532 q 418 520 382 532 q 483 490 454 508 q 533 447 513 471 q 563 399 553 422 q 565 460 563 429 q 568 521 567 490 z "},"d":{"ha":728,"x_min":74,"x_max":619,"o":"m 132 261 q 149 178 132 217 q 194 110 165 139 q 261 64 222 81 q 346 47 300 47 q 431 64 392 47 q 500 110 471 81 q 546 178 529 139 q 563 261 563 217 q 546 345 563 306 q 500 414 529 385 q 431 460 471 443 q 346 476 392 476 q 261 460 300 476 q 194 414 222 443 q 149 345 165 385 q 132 261 132 306 m 74 261 q 94 366 74 317 q 152 452 115 415 q 239 510 189 489 q 346 532 289 532 q 424 520 388 532 q 489 490 460 508 q 539 447 518 471 q 568 400 560 424 q 565 431 567 415 q 563 463 564 447 l 563 1042 l 619 1042 l 619 0 l 568 0 l 568 63 l 568 121 q 540 74 560 97 q 491 31 519 50 q 426 1 463 13 q 346 -10 389 -10 q 239 12 289 -10 q 152 69 189 33 q 94 155 115 106 q 74 261 74 204 z "},"a":{"ha":699,"x_min":68,"x_max":615,"o":"m 126 261 q 143 178 126 217 q 188 110 160 139 q 256 64 217 81 q 342 47 296 47 q 426 64 388 47 q 494 110 465 81 q 540 178 524 139 q 557 261 557 217 q 540 345 557 306 q 494 414 524 385 q 426 460 465 443 q 342 476 388 476 q 256 460 296 476 q 188 414 217 443 q 143 345 160 385 q 126 261 126 306 m 68 261 q 90 366 68 317 q 148 452 111 415 q 235 510 185 489 q 342 532 285 532 q 418 520 382 532 q 483 490 454 508 q 533 447 513 471 q 563 399 553 422 q 565 460 563 429 q 568 521 567 490 l 615 521 l 615 0 l 563 0 l 563 63 q 563 92 563 78 q 564 121 564 106 q 535 74 556 97 q 487 31 515 50 q 422 1 458 13 q 342 -10 385 -10 q 235 12 285 -10 q 148 69 185 33 q 90 155 111 106 q 68 261 68 204 z "},"n":{"ha":688,"x_min":143,"x_max":593,"o":"m 143 521 l 196 521 l 196 472 q 196 429 196 449 q 197 386 196 410 q 286 492 225 451 q 425 532 347 532 q 546 489 501 532 q 593 376 590 446 l 593 0 l 535 0 l 535 361 q 502 439 532 406 q 414 475 472 472 q 333 460 372 475 q 265 421 294 446 q 219 361 236 396 q 201 285 201 326 l 201 0 l 143 0 l 143 521 z "}}}
